<svg xmlns="http://www.w3.org/2000/svg" width="24" height="24" viewBox="0 0 24 24" fill="none">
  <path d="M14.0555 10.6172L21.8842 20.9727C21.7332 20.9809 21.633 20.9908 21.5344 20.9908C19.7073 20.9908 17.8807 20.9908 16.0541 20.9966C15.8349 20.9966 15.7043 20.9249 15.5731 20.7529C14.0474 18.7433 12.5135 16.7394 10.9551 14.7001C10.7394 14.9403 10.5324 15.1665 10.3318 15.395C8.78569 17.165 7.24167 18.937 5.6998 20.7109C5.62401 20.8086 5.52516 20.886 5.41211 20.936C5.29906 20.9861 5.17534 21.0073 5.05207 20.9978C4.29416 20.9797 3.53624 20.9919 2.77832 20.9919H2.3947L9.52086 12.8344L2 3.00483H2.31191C4.21603 3.00483 6.12073 3.00483 8.02544 3.00134C8.10995 2.99497 8.19463 3.01142 8.27062 3.04895C8.34661 3.08649 8.41113 3.14374 8.45745 3.21472C9.77894 4.97658 11.108 6.73378 12.4447 8.48632C12.503 8.56269 12.5648 8.63557 12.6458 8.73527C13.1122 8.20706 13.5629 7.69284 14.0141 7.17746C15.1802 5.84819 16.3462 4.51931 17.5122 3.19081C17.5833 3.11094 17.6935 3.01591 17.7868 3.01591C18.7371 3.0025 19.688 3.00775 20.7153 3.00775L14.0555 10.6172ZM5.57095 4.70607C5.638 4.80809 5.67531 4.87222 5.71962 4.93053C7.72169 7.55214 9.72453 10.1734 11.7281 12.7942C13.2953 14.8449 14.8634 16.8945 16.4325 18.9432C16.4989 19.0301 16.5981 19.1496 16.6855 19.1531C17.2032 19.1729 17.7221 19.163 18.2894 19.163C18.2124 19.0546 18.1728 18.9928 18.1261 18.9333C15.8431 15.9156 13.5598 12.8984 11.2763 9.88147C10.0174 8.21638 8.75925 6.55247 7.50189 4.88971C7.44359 4.81276 7.34623 4.71481 7.26519 4.71481C6.71599 4.69849 6.16621 4.70607 5.57095 4.70607Z" fill="#0F1419"/>
  <path d="M5.57031 4.70495C6.16557 4.70495 6.71535 4.69737 7.26455 4.71311C7.34559 4.71311 7.44295 4.81164 7.50125 4.88801C8.76172 6.55116 10.0199 8.21527 11.2757 9.88035C13.5584 12.898 15.8416 15.9153 18.1255 18.9322C18.1704 18.9905 18.2118 19.0535 18.2887 19.1619C17.7215 19.1619 17.2026 19.1718 16.6849 19.152C16.5974 19.1485 16.4983 19.029 16.4318 18.9421C14.8616 16.8942 13.2935 14.8445 11.7275 12.7931C9.72428 10.1719 7.72144 7.55063 5.71898 4.92941C5.67234 4.87111 5.63736 4.80698 5.57031 4.70495Z" fill="white"/>
</svg>