<svg xmlns="http://www.w3.org/2000/svg" width="29" height="28" viewBox="0 0 29 28" fill="none">
  <circle cx="14.5" cy="14" r="14" fill="#E5EDEE"/>
  <path d="M22.038 16.6242L21.2747 15.9947C20.9958 15.7646 20.5839 15.807 20.3566 16.089L20.158 16.3355L18.8237 15.2286C18.8733 15.1229 18.9053 15.0071 18.9149 14.8865C18.9352 14.6323 18.858 14.3788 18.7033 14.191C18.6233 14.0938 18.525 14.0153 18.416 13.9588C18.5888 13.6739 18.6174 13.3166 18.4982 13.0649C18.3363 12.7232 18.0701 12.5968 17.8589 12.5419C18.0797 12.2247 18.2849 11.7669 17.8777 11.2722C17.7192 11.0795 17.5073 10.9656 17.2869 10.9354C17.383 10.6527 17.3634 10.3438 17.1552 10.08C17.0131 9.89998 16.7876 9.78183 16.5362 9.75592C16.2849 9.73018 16.0463 9.79899 15.8627 9.94913L14.7168 9.5652C14.4029 9.46028 14.1214 9.47476 13.8795 9.60881C13.6557 9.73286 13.4785 9.95378 13.3503 10.2675L12.9815 9.95235C12.7977 9.79524 12.5636 9.71981 12.3227 9.74072C12.0816 9.76128 11.8634 9.87496 11.708 10.0608C11.5529 10.2467 11.4785 10.4834 11.4988 10.727C11.5044 10.7948 11.5179 10.8605 11.5373 10.9238C11.3217 10.9574 11.1277 11.0661 10.9863 11.2362C10.7553 11.514 10.7168 11.8917 10.855 12.2032C10.677 12.2506 10.5181 12.3512 10.3976 12.4967C10.1131 12.8401 10.121 13.337 10.3937 13.6721C10.249 13.7261 10.1198 13.8169 10.0182 13.94C9.77625 14.2332 9.74638 14.6384 9.91144 14.9596L8.61039 16.0552C8.378 15.8061 7.99186 15.7748 7.72571 15.9945L6.96225 16.624C6.68356 16.8539 6.6415 17.2703 6.86894 17.5524L10.0797 21.5351C10.1894 21.6713 10.3457 21.7563 10.5194 21.774C10.542 21.7764 10.5646 21.7776 10.5871 21.7776C10.7367 21.7776 10.8806 21.7261 10.9976 21.6296L11.761 21.0001C12.0397 20.7702 12.082 20.3536 11.8545 20.0717L11.4507 19.5707L13.6389 17.7983C13.7513 17.8107 13.8614 17.8241 13.9692 17.8373C14.3234 17.8805 14.6691 17.922 15.0077 17.9097L17.3337 19.8395L17.1466 20.0717C16.9193 20.3536 16.9612 20.7702 17.2399 21.0001L18.0033 21.6296C18.1205 21.7263 18.2644 21.7778 18.414 21.7778C18.4365 21.7778 18.4591 21.7767 18.4817 21.7742C18.6554 21.7563 18.8117 21.6714 18.9214 21.5352L22.1322 17.5524C22.3587 17.2705 22.3167 16.854 22.038 16.6242ZM14.1057 10.0272C14.2299 9.95843 14.3812 9.95539 14.5683 10.0181L15.435 10.3086L14.4091 11.1724L13.7335 10.5953C13.8245 10.3077 13.9517 10.1125 14.1057 10.0272ZM12.0678 10.3686C12.1532 10.2664 12.2753 10.2137 12.3983 10.2137C12.4969 10.2137 12.5961 10.2475 12.6768 10.3168L14.1889 11.6086C14.2766 11.6834 14.3301 11.7891 14.3398 11.9058C14.3497 12.0227 14.3142 12.1358 14.2401 12.2247C14.1661 12.3133 14.0618 12.3675 13.9463 12.3773C13.8307 12.3868 13.7188 12.3514 13.6312 12.2763L12.1191 10.9846C12.0316 10.9097 11.9777 10.8042 11.968 10.6873C11.9583 10.5704 11.994 10.4573 12.0678 10.3686ZM11.3466 11.5435C11.4205 11.4548 11.5244 11.4007 11.6393 11.3909C11.7534 11.3814 11.8657 11.4171 11.953 11.4918L13.2005 12.5625C13.3825 12.7187 13.4057 12.9965 13.2517 13.1813C13.1782 13.2699 13.0741 13.3241 12.9592 13.3339C12.8433 13.3441 12.7329 13.3078 12.6456 13.2329L12.5848 13.1808L11.6677 12.3895C11.6494 12.3736 11.6299 12.3591 11.6107 12.3448L11.3979 12.1623C11.216 12.0059 11.1929 11.7283 11.3466 11.5435ZM10.7587 12.8033C10.832 12.7146 10.9356 12.6604 11.0499 12.6508C11.0621 12.6497 11.0743 12.6494 11.0863 12.6494C11.1743 12.6494 11.2581 12.678 11.3298 12.7291L12.2843 13.5482L12.3573 13.6112C12.5395 13.7683 12.5625 14.0473 12.4087 14.233C12.3354 14.3216 12.2318 14.3758 12.1175 14.3855C12.0053 14.3951 11.8964 14.3599 11.8102 14.2875L11.2872 13.8337C11.2743 13.8224 11.2606 13.8126 11.247 13.8021L10.8103 13.4251C10.6279 13.2678 10.6047 12.989 10.7587 12.8033ZM10.3798 14.2459C10.4529 14.1572 10.5558 14.1032 10.6698 14.0936C10.7751 14.0846 10.8765 14.1166 10.9598 14.1806L11.4995 14.6464C11.5029 14.6493 11.5064 14.6518 11.5097 14.6545L11.777 14.8863C11.959 15.0443 11.982 15.3246 11.828 15.5108C11.7549 15.5995 11.652 15.6534 11.5382 15.6631C11.4247 15.6724 11.3141 15.6365 11.2275 15.5614L10.431 14.8702C10.2488 14.7124 10.2258 14.4321 10.3798 14.2459ZM11.4626 20.6308L10.6991 21.2603C10.662 21.2909 10.6143 21.3052 10.5666 21.3C10.5181 21.295 10.4747 21.2716 10.4444 21.2341L7.23388 17.2514C7.17079 17.1731 7.18245 17.0574 7.25986 16.9936L8.02331 16.3641C8.05671 16.3364 8.09736 16.323 8.13748 16.323C8.18996 16.323 8.24227 16.3461 8.27797 16.3904L8.40027 16.5421C8.40027 16.5421 8.40027 16.5423 8.40044 16.5423C8.40044 16.5423 8.40044 16.5423 8.40062 16.5425L10.9329 19.6838C10.9331 19.684 10.9331 19.6842 10.9333 19.6844C10.9334 19.6846 10.9336 19.6847 10.9338 19.6849L11.4887 20.3732C11.5516 20.4514 11.54 20.567 11.4626 20.6308ZM14.0252 17.3642C13.884 17.347 13.7393 17.3293 13.5902 17.3141C13.5288 17.3075 13.4673 17.3263 13.4193 17.3652L11.1522 19.2014L8.91171 16.422L10.2228 15.3179L10.9207 15.9235C11.0844 16.0656 11.2883 16.1418 11.5016 16.1418C11.5267 16.1418 11.552 16.1407 11.5773 16.1385C11.8178 16.1183 12.0353 16.0041 12.1901 15.8168C12.4234 15.5342 12.4593 15.1476 12.3138 14.8325C12.4915 14.7849 12.65 14.6845 12.7703 14.5392C12.9439 14.3295 13.008 14.0628 12.9704 13.8105C12.9799 13.8099 12.9895 13.8101 12.999 13.8092C13.2399 13.7886 13.458 13.6748 13.6128 13.4884C13.7669 13.3032 13.8349 13.0732 13.8227 12.8483C13.8514 12.851 13.8795 12.8558 13.9084 12.8558C13.9342 12.8558 13.9602 12.8547 13.9862 12.8526C14.2272 12.832 14.4455 12.7184 14.6007 12.5325C14.7558 12.3466 14.8304 12.1099 14.8101 11.8661C14.8002 11.7482 14.7684 11.6359 14.7178 11.5333L16.155 10.3231C16.2403 10.2514 16.3621 10.2178 16.4884 10.2308C16.6127 10.2437 16.7242 10.2986 16.7869 10.3779C16.9679 10.6071 16.826 10.9358 16.5924 11.1419C16.4952 11.2277 16.4842 11.3767 16.568 11.4761C16.6516 11.5755 16.7988 11.5882 16.8981 11.5047C17.0824 11.3494 17.3539 11.3812 17.5154 11.5778C17.751 11.864 17.6349 12.0736 17.3335 12.4522L17.3132 12.4778C17.2097 12.6082 17.231 12.7225 17.253 12.7788C17.3138 12.935 17.47 12.958 17.5841 12.9748C17.789 13.0049 17.9673 13.0479 18.0731 13.2716C18.1359 13.4038 18.091 13.7461 17.8331 13.8866C17.7352 13.9399 17.6877 14.055 17.7186 14.1629C17.7496 14.2709 17.8499 14.3427 17.9616 14.3343C18.106 14.3236 18.249 14.3846 18.3412 14.4966C18.4178 14.5894 18.4556 14.7177 18.4451 14.8486C18.4349 14.9785 18.3776 15.0961 18.2882 15.1716L16.0816 17.0288C15.4735 17.5411 14.8343 17.463 14.0252 17.3642ZM15.6308 17.8107C15.8856 17.7327 16.1364 17.603 16.3833 17.3951L18.5215 15.5946L19.8598 16.705L17.631 19.4701L15.6308 17.8107ZM21.766 17.2514L18.5554 21.2342C18.5252 21.2718 18.4819 21.2952 18.4333 21.3002C18.3852 21.3054 18.3377 21.2911 18.3006 21.2605L17.5371 20.631C17.4597 20.5672 17.4482 20.4515 17.5113 20.3732L20.7217 16.3906C20.7852 16.3121 20.8993 16.3005 20.9767 16.3643L21.74 16.9938C21.8174 17.0574 21.8291 17.1731 21.766 17.2514ZM14.0956 7.64732V6.46067C14.0956 6.32894 14.2011 6.22223 14.3313 6.22223C14.4616 6.22223 14.5671 6.32894 14.5671 6.46067V7.64732C14.5671 7.77905 14.4616 7.88576 14.3313 7.88576C14.2011 7.88576 14.0956 7.77887 14.0956 7.64732ZM10.348 7.76529C10.2829 7.65125 10.3216 7.5054 10.4342 7.43963C10.5471 7.37349 10.691 7.41282 10.7562 7.52685L11.3427 8.55461C11.4078 8.66864 11.3691 8.81449 11.2565 8.88027C11.2194 8.9019 11.1787 8.91226 11.139 8.91226C11.0575 8.91226 10.9783 8.86955 10.9345 8.79305L10.348 7.76529ZM7.66103 10.4648C7.72606 10.3508 7.86991 10.3114 7.98302 10.3776L8.99919 10.9708C9.11194 11.0366 9.15046 11.1824 9.08543 11.2965C9.0416 11.373 8.96261 11.4157 8.88096 11.4157C8.84102 11.4157 8.80055 11.4053 8.76344 11.3837L7.74727 10.7905C7.63469 10.7245 7.59617 10.5788 7.66103 10.4648ZM19.8747 10.7751C19.8096 10.6611 19.8483 10.5154 19.9609 10.4494L20.9771 9.85601C21.09 9.79006 21.2339 9.8292 21.2991 9.94324C21.3641 10.0573 21.3254 10.2029 21.2128 10.2689L20.1967 10.8623C20.1596 10.8839 20.1189 10.8943 20.0791 10.8943C19.9977 10.8943 19.9185 10.8516 19.8747 10.7751ZM17.3995 8.25361L17.986 7.22585C18.051 7.11182 18.1949 7.07249 18.308 7.13863C18.4208 7.2044 18.4593 7.35026 18.3942 7.46429L17.8077 8.49205C17.764 8.56855 17.6849 8.61127 17.6032 8.61127C17.5633 8.61127 17.5228 8.6009 17.4857 8.57927C17.3731 8.5135 17.3344 8.36764 17.3995 8.25361Z" fill="#252525"/>
</svg>