<svg xmlns="http://www.w3.org/2000/svg" width="29" height="28" viewBox="0 0 29 28" fill="none">
  <circle cx="14.5" cy="14" r="14" fill="#E5EDEE"/>
  <path d="M18.1258 17.6022C17.8015 17.6022 17.4967 17.4755 17.2676 17.2455L15.4459 15.4189L15.896 14.9675L17.7176 16.7941C17.8266 16.9034 17.9716 16.9637 18.1257 16.9637C18.2799 16.9637 18.4248 16.9035 18.5339 16.7941C18.6429 16.6847 18.703 16.5394 18.703 16.3849C18.703 16.2303 18.643 16.0849 18.5339 15.9756L16.7124 14.1488L17.1624 13.6975L18.9841 15.5243C19.2134 15.7542 19.3396 16.0598 19.3396 16.3851C19.3396 16.7103 19.2132 17.0159 18.9839 17.2457C18.7547 17.4755 18.45 17.6022 18.1258 17.6022Z" fill="#252525"/>
  <path d="M16.8543 18.8725C16.53 18.8725 16.2251 18.7459 15.9959 18.5159L14.1741 16.6891L14.6241 16.2376L16.4459 18.0647C16.555 18.174 16.6999 18.2341 16.8543 18.2341C17.0085 18.2341 17.1535 18.174 17.2626 18.0645C17.4875 17.839 17.4875 17.4718 17.2623 17.246L15.4407 15.4191L15.8909 14.9677L17.7127 16.7945C18.186 17.2691 18.1861 18.0414 17.7128 18.5159C17.4832 18.7459 17.1785 18.8725 16.8543 18.8725Z" fill="#252525"/>
  <path d="M15.5877 20.1427C15.2635 20.1427 14.9588 20.0161 14.7293 19.7863L14.6895 19.7464L15.1396 19.295L15.1792 19.3347C15.2882 19.444 15.4333 19.5042 15.5875 19.5042C15.7419 19.5042 15.8869 19.444 15.9959 19.3347C16.2209 19.1091 16.2208 18.7419 15.9957 18.5162L14.1741 16.6893L14.6241 16.2379L16.4459 18.0649C16.9192 18.5395 16.9194 19.3117 16.4461 19.7863C16.2169 20.0161 15.912 20.1427 15.5877 20.1427Z" fill="#252525"/>
  <path d="M19.3909 16.3321C19.0667 16.3321 18.762 16.2056 18.5325 15.9758L16.7107 14.1489L17.1607 13.6974L18.9825 15.5241C19.0915 15.6335 19.2367 15.6936 19.3909 15.6936C19.5452 15.6936 19.6902 15.6335 19.7992 15.5241C20.0243 15.2985 20.0241 14.9313 19.7991 14.7055L14.483 9.37482C13.8667 8.7566 13.0471 8.41621 12.175 8.41605C11.3034 8.41605 10.4837 8.7566 9.8672 9.37482C9.25054 9.99304 8.91109 10.815 8.91109 11.6892C8.91109 12.5634 9.25054 13.3854 9.86704 14.0036L10.0774 14.2146L9.62738 14.6661L9.417 14.4551C8.68018 13.7162 8.27454 12.734 8.27454 11.6892C8.27454 10.6445 8.68034 9.66223 9.417 8.92352C10.1538 8.18466 11.1333 7.77773 12.175 7.77773C13.2171 7.77788 14.1966 8.18482 14.9331 8.92352L20.2491 14.2543C20.7224 14.7289 20.7224 15.5012 20.2493 15.9756C20.0201 16.2056 19.7152 16.3321 19.3909 16.3321Z" fill="#252525"/>
  <path d="M20.2235 14.666L19.7734 14.2145L19.9047 14.0828C20.5215 13.4648 20.861 12.6429 20.8608 11.7686C20.8608 10.8944 20.5214 10.0726 19.9049 9.45434C18.6324 8.17833 16.5615 8.17817 15.2887 9.45418L15.1574 9.58584L14.7074 9.13454L14.8387 9.00288C15.5755 8.26418 16.555 7.85741 17.5969 7.85741C18.6388 7.85741 19.6183 8.26434 20.3549 9.00304C21.0916 9.74175 21.4974 10.724 21.4974 11.7686C21.4975 12.8135 21.0917 13.7958 20.3548 14.5345L20.2235 14.666Z" fill="#252525"/>
  <path d="M12.8925 18.9513C12.5817 18.9513 12.2707 18.8325 12.0341 18.5953C11.8049 18.3655 11.6787 18.0599 11.6787 17.7346C11.6787 17.4096 11.8049 17.104 12.0341 16.8738L12.2279 16.6795C12.4571 16.4497 12.7618 16.323 13.0861 16.323C13.4105 16.323 13.7151 16.4495 13.9444 16.6795C14.1735 16.9093 14.2999 17.215 14.2999 17.5403C14.2999 17.8653 14.1737 18.1709 13.9447 18.4009L13.7507 18.5954C13.5141 18.8327 13.2033 18.9513 12.8925 18.9513ZM13.0861 16.9615C12.9319 16.9615 12.7871 17.0216 12.6781 17.1309L12.4844 17.3251C12.3754 17.4345 12.3154 17.58 12.3154 17.7346C12.3154 17.8894 12.3754 18.0346 12.4843 18.144C12.7095 18.3696 13.0756 18.3698 13.3007 18.1441L13.4945 17.9497C13.6033 17.8404 13.6633 17.6951 13.6633 17.5404C13.6633 17.3856 13.6033 17.2402 13.4943 17.1309C13.3852 17.0216 13.2402 16.9615 13.0861 16.9615Z" fill="#252525"/>
  <path d="M11.6351 17.6816C11.3243 17.6816 11.0134 17.563 10.7767 17.3257C10.5476 17.0959 10.4214 16.7901 10.4214 16.4649C10.4214 16.1399 10.5476 15.8343 10.7767 15.6041L10.9706 15.4098C11.444 14.9353 12.2139 14.9353 12.687 15.4098C12.9162 15.6397 13.0426 15.9453 13.0426 16.2706C13.0426 16.5956 12.9164 16.9012 12.6874 17.1312L12.4935 17.3255C12.2569 17.5628 11.9461 17.6816 11.6351 17.6816ZM11.8288 15.6921C11.681 15.6921 11.5331 15.7486 11.4206 15.8614L11.2269 16.0556C11.1179 16.1649 11.0579 16.3104 11.0579 16.4651C11.0579 16.6199 11.1179 16.7651 11.2268 16.8744C11.452 17.1001 11.8183 17.1001 12.0435 16.8744L12.2372 16.6802C12.346 16.5709 12.406 16.4255 12.406 16.2709C12.406 16.1161 12.346 15.9707 12.237 15.8614C12.1245 15.7484 11.9767 15.6921 11.8288 15.6921Z" fill="#252525"/>
  <path d="M14.1779 20.2221C13.8535 20.2221 13.5488 20.0954 13.3195 19.8656C13.0903 19.6358 12.9641 19.3302 12.9641 19.005C12.9641 18.6799 13.0903 18.3743 13.3193 18.1444L13.5133 17.9499C13.9866 17.4754 14.7565 17.4754 15.2296 17.9499C15.4588 18.1798 15.5851 18.4854 15.5851 18.8106C15.5851 19.1357 15.4589 19.4413 15.2299 19.6713L15.0359 19.8658C14.8068 20.0954 14.502 20.2221 14.1779 20.2221ZM14.3714 18.232C14.2235 18.232 14.0759 18.2885 13.9633 18.4013L13.7695 18.5957C13.6607 18.705 13.6007 18.8504 13.6007 19.005C13.6007 19.1598 13.6607 19.305 13.7695 19.4143C13.8785 19.5236 14.0235 19.584 14.1777 19.584C14.3319 19.584 14.4767 19.5238 14.5857 19.4145L14.7796 19.2201C14.8884 19.1108 14.9484 18.9654 14.9484 18.8108C14.9484 18.656 14.8884 18.5106 14.7794 18.4013C14.6671 18.2883 14.5192 18.232 14.3714 18.232Z" fill="#252525"/>
  <path d="M10.3633 16.4113C10.0525 16.4113 9.74153 16.2927 9.50489 16.0554C9.27573 15.8256 9.14954 15.5199 9.14954 15.1946C9.14954 14.8696 9.27573 14.564 9.50489 14.3339L9.69872 14.1395C10.1722 13.6649 10.9422 13.6649 11.4154 14.1393C11.6447 14.3693 11.7709 14.6752 11.7707 15.0006C11.7707 15.3253 11.6445 15.6309 11.4155 15.8609L11.2217 16.0553C10.985 16.2926 10.6742 16.4113 10.3633 16.4113ZM10.5573 14.4216C10.4094 14.4216 10.2614 14.4781 10.1488 14.5909L9.9551 14.7852C9.84609 14.8945 9.78609 15.04 9.78609 15.1946C9.78609 15.3494 9.84609 15.4947 9.95494 15.604C10.1801 15.8296 10.5465 15.8296 10.7716 15.604L10.9653 15.4098C11.0742 15.3004 11.1342 15.1551 11.1342 15.0004C11.1343 14.8455 11.0743 14.7001 10.9653 14.5908C10.8528 14.478 10.7051 14.4216 10.5573 14.4216Z" fill="#252525"/>
</svg>