<svg xmlns="http://www.w3.org/2000/svg" width="42" height="42" viewBox="0 0 42 42" fill="none">
  <circle cx="21" cy="21" r="20.5" fill="white" stroke="#454545"/>
  <path d="M16.1366 15.0581C15.9979 14.668 15.8416 14.3092 15.7366 13.9355C15.5363 13.2208 15.4896 12.4941 15.744 11.7818C16.0756 10.8514 16.9534 10.3337 17.8987 10.4738C18.473 10.5601 19.021 10.7808 19.5017 11.1191C19.565 11.163 19.6307 11.2044 19.7056 11.254C19.8957 11.0898 20.0784 10.9169 20.2745 10.7657C20.9488 10.2403 21.6878 9.91566 22.5522 10.0192C22.9914 10.0721 23.4092 10.2454 23.763 10.5215C25.409 11.7881 25.4806 13.6359 24.5557 15.2083C24.4761 15.3441 24.3818 15.4703 24.2837 15.6162C24.3365 15.6644 24.3799 15.7039 24.4266 15.7405C24.6787 15.9389 24.9395 16.1257 25.1819 16.3357C25.8516 16.9165 26.1993 17.6553 26.1355 18.5746C26.1221 18.7706 26.1818 18.8872 26.327 19.0177C27.1437 19.7458 27.7269 20.6382 27.9609 21.7435C28.1348 22.5622 27.7732 23.3279 27.036 23.665C26.6246 23.8449 26.199 23.9877 25.7641 24.0917C24.8595 24.3219 24.3892 24.9393 24.2042 25.8524C24.0548 26.5829 24.1681 27.3044 24.2255 28.0316C24.2777 28.6933 24.3508 29.3622 24.3101 30.021C24.2435 31.0877 23.6931 31.8881 22.4412 31.9132C20.9765 31.943 19.5276 31.8241 18.1748 31.159C17.7308 30.9408 17.3289 30.6658 17.0186 30.2623C16.9788 30.2107 16.9145 30.1477 16.8595 30.1457C15.8134 30.1038 15.4013 29.2702 15.3879 28.3976C15.3708 27.315 15.3703 26.2304 15.374 25.1502C15.3797 24.9928 15.3318 24.8383 15.239 24.7139C14.0758 23.0765 13.8386 21.2787 14.4453 19.3557C14.5129 19.141 14.5101 18.9777 14.4069 18.7725C14.0897 18.1436 13.8982 17.4833 14.0568 16.7581C14.1575 16.319 14.3861 15.923 14.7112 15.6244C15.0363 15.3258 15.4421 15.1391 15.873 15.0898C15.9618 15.0802 16.0502 15.0682 16.1366 15.0581ZM26.0093 19.6331C25.963 19.7627 25.9357 19.8349 25.9121 19.9091C25.3974 21.5282 23.935 22.7235 22.3048 22.8593C21.3534 22.9383 20.7897 22.24 21.0098 21.2701C21.1352 20.7172 21.4487 20.2876 21.8002 19.8778C22.0518 19.5845 22.3131 19.2999 22.5527 18.9965C23.0341 18.3878 23.3167 17.7159 23.2302 16.8934C23.1664 16.2827 23.3546 15.7207 23.7135 15.2266C23.8186 15.0878 23.9163 14.9431 24.0062 14.7932C24.6884 13.6056 24.6898 12.2754 23.6205 11.2829C22.5758 10.3135 21.1976 10.6284 20.2606 11.75L20.4585 11.9817C20.9266 12.5278 21.2813 13.1418 21.4839 13.8454C21.643 14.3983 21.7262 14.9613 21.5916 15.531C21.3322 16.629 20.3563 17.3172 19.1923 17.2329C18.3103 17.1689 17.6009 16.7272 16.9673 16.119C16.8558 16.0121 16.736 15.8975 16.5973 15.8402C15.9096 15.5555 14.9749 16.028 14.7436 16.761C14.5799 17.2777 14.677 17.7757 14.9083 18.2269C15.1447 18.6846 15.4194 19.1197 15.7292 19.5272C16.2684 20.238 16.8452 20.9175 17.4062 21.6101C17.7359 22.017 17.9611 22.0546 18.4121 21.8065C18.6286 21.6837 18.8544 21.5795 19.0873 21.495C19.6325 21.3062 20.1353 21.5431 20.36 22.0955C20.5913 22.6618 20.5654 23.2455 20.3808 23.8138C19.9646 25.091 18.7122 25.9858 17.3659 25.9747C17.174 25.9747 17.1102 26.0229 17.1208 26.227C17.1633 27.0457 17.2031 27.8616 17.2253 28.6798C17.2489 29.5298 17.6277 30.1082 18.3649 30.4727C19.7158 31.1412 21.1467 31.2572 22.6072 31.1835C23.1123 31.1585 23.4207 30.8874 23.559 30.3846C23.7482 29.6959 23.664 28.9995 23.5854 28.3065C23.4855 27.4214 23.368 26.5377 23.5567 25.6491C23.7856 24.5723 24.3429 23.7994 25.3946 23.4781C25.7271 23.3765 26.0629 23.2855 26.3954 23.1849C27.0845 22.9768 27.4129 22.5545 27.3024 21.9202C27.1465 21.0211 26.6442 20.316 26.0079 19.6331H26.0093ZM16.2495 12.9949C16.3341 14.1792 16.8789 15.3066 18.0102 16.0829C18.4347 16.383 18.9363 16.5426 19.4494 16.5409C20.1034 16.5365 20.7494 16.0915 20.8951 15.4756C20.9752 15.1416 20.9833 14.7932 20.9187 14.4556C20.6153 13.0046 19.7995 11.9643 18.4925 11.3551C18.3581 11.2946 18.2176 11.2502 18.0735 11.2227C16.9659 10.9963 16.2495 11.6137 16.2495 12.9949ZM15.0692 19.7906L14.9938 19.8267C14.8103 20.4549 14.7498 21.115 14.8158 21.768C14.9259 22.8627 15.3 23.8345 16.0534 24.6234C16.5228 25.1146 17.0824 25.3939 17.7646 25.2547C18.4352 25.1189 19.0165 24.7977 19.4258 24.2126C19.7805 23.7059 19.9415 23.141 19.7782 22.5121C19.6857 22.1499 19.541 22.0628 19.202 22.1942C18.98 22.2809 18.7714 22.4056 18.5577 22.5159C18.0744 22.7659 17.6069 22.7269 17.1999 22.3666C16.9626 22.1567 16.7753 21.885 16.5714 21.6361C16.0694 21.0225 15.5687 20.4074 15.0692 19.7906ZM23.8763 17.1062C23.8065 17.4795 23.8472 17.8758 23.7422 18.238C23.5438 18.9242 23.0841 19.442 22.6415 19.9664C22.3778 20.279 22.0939 20.5819 21.8853 20.932C21.7466 21.1627 21.6864 21.4661 21.6661 21.743C21.6453 22.0286 21.8335 22.1803 22.1087 22.1692C22.2933 22.1664 22.4771 22.1438 22.6572 22.1018C24.1533 21.7122 25.0829 20.7307 25.3974 19.1597C25.5223 18.537 25.5759 17.8729 25.1509 17.3393C24.8651 16.9815 24.4886 16.7008 24.1482 16.3916C24.0303 16.2847 23.9424 16.3376 23.9244 16.4879C23.899 16.6911 23.8916 16.8992 23.8763 17.1062ZM16.6024 29.367C16.5617 29.0655 16.5057 28.7891 16.4914 28.5151C16.4483 27.6824 16.4104 26.8493 16.3956 26.0161C16.391 25.7455 16.2717 25.6308 16.0391 25.56C16.0273 25.5991 16.0194 25.6393 16.0155 25.68C16.0321 26.6431 16.0478 27.6025 16.0719 28.5637C16.0808 28.6919 16.1101 28.8177 16.1584 28.936C16.2333 29.1411 16.3498 29.3097 16.6024 29.367Z" fill="#252525"/>
  <path d="M26.0095 19.633C26.6444 20.3158 27.1467 21.0209 27.3044 21.9219C27.4145 22.5562 27.0866 22.9785 26.3975 23.1866C26.0649 23.2872 25.7292 23.3792 25.3967 23.4799C24.3445 23.8011 23.7895 24.574 23.5583 25.6509C23.3696 26.5394 23.4871 27.4231 23.587 28.3083C23.6656 29.0013 23.7498 29.6977 23.5606 30.3863C23.4219 30.8891 23.1138 31.1602 22.6088 31.1853C21.1483 31.259 19.7174 31.1429 18.3665 30.4745C17.6293 30.1099 17.2505 29.5315 17.2269 28.6815C17.2047 27.8628 17.1649 27.0441 17.1224 26.2288C17.1117 26.0251 17.1756 25.9745 17.3675 25.9764C18.7138 25.9875 19.9676 25.0927 20.3824 23.8155C20.5674 23.2473 20.5915 22.6636 20.3616 22.0972C20.1359 21.5453 19.6341 21.3079 19.0889 21.4948C18.8567 21.5793 18.6315 21.6833 18.4155 21.8059C17.9632 22.0539 17.7393 22.0163 17.4096 21.6094C16.8486 20.9169 16.2719 20.2373 15.7326 19.5265C15.4229 19.119 15.1482 18.6839 14.9117 18.2262C14.6805 17.775 14.5815 17.277 14.7448 16.7608C14.976 16.0278 15.9107 15.5568 16.5984 15.84C16.7371 15.8973 16.856 16.0119 16.9684 16.1188C17.602 16.727 18.3096 17.1687 19.1934 17.2327C20.3574 17.317 21.3333 16.6288 21.5927 15.5308C21.7273 14.962 21.6441 14.3991 21.485 13.8452C21.2824 13.1416 20.9277 12.5276 20.4597 11.9815L20.2617 11.7498C21.1987 10.6282 22.5769 10.3133 23.6217 11.2827C24.6909 12.2753 24.6895 13.6054 24.0074 14.793C23.9174 14.9429 23.8197 15.0876 23.7146 15.2264C23.3557 15.7205 23.1675 16.2825 23.2313 16.8932C23.3178 17.7158 23.0352 18.3861 22.5538 18.9963C22.3142 19.2997 22.0529 19.5843 21.8013 19.8776C21.4498 20.2874 21.1363 20.717 21.0109 21.2699C20.7903 22.2388 21.3541 22.9371 22.3059 22.8591C23.938 22.7233 25.4004 21.528 25.9133 19.9089C25.9373 19.8347 25.9632 19.7611 26.0095 19.633Z" fill="#FCC300"/>
  <path d="M16.2422 12.9975C16.2422 11.6163 16.9572 10.9994 18.0662 11.2253C18.2103 11.2527 18.3508 11.2972 18.4852 11.3577C19.7922 11.9669 20.608 13.0072 20.9114 14.4582C20.976 14.7958 20.9679 15.1442 20.8878 15.4782C20.7421 16.0941 20.0961 16.5377 19.4421 16.5435C18.929 16.5452 18.4274 16.3856 18.0029 16.0855C16.873 15.3082 16.3282 14.1817 16.2422 12.9975Z" fill="#EA5A1A"/>
  <path d="M15.0758 19.7891C15.5765 20.4045 16.0775 21.0197 16.5788 21.6345C16.7828 21.8835 16.9701 22.1551 17.2073 22.3651C17.6143 22.7253 18.0819 22.7643 18.5652 22.5144C18.7789 22.4041 18.9874 22.2794 19.2094 22.1927C19.5484 22.0612 19.6918 22.1484 19.7857 22.5105C19.9489 23.1395 19.788 23.7044 19.4333 24.211C19.024 24.7961 18.4426 25.1174 17.772 25.2532C17.0908 25.3909 16.5312 25.113 16.0609 24.6218C15.3075 23.833 14.9333 22.8611 14.8232 21.7665C14.7566 21.1136 14.8165 20.4535 14.9995 19.8252L15.0758 19.7891Z" fill="#EA5A1A"/>
  <path d="M23.8776 17.1074C23.8928 16.9004 23.9002 16.6923 23.9238 16.4871C23.9418 16.3388 24.0297 16.2858 24.1477 16.3908C24.488 16.7 24.8645 16.9808 25.1503 17.3386C25.5753 17.8722 25.5203 18.5363 25.3968 19.159C25.0823 20.7299 24.1527 21.7114 22.6566 22.101C22.4765 22.1431 22.2927 22.1657 22.1081 22.1684C21.8329 22.1795 21.6456 22.0278 21.6655 21.7422C21.6859 21.4653 21.7469 21.1643 21.8847 20.9312C22.0933 20.5811 22.3773 20.2782 22.6409 19.9657C23.0835 19.4402 23.5432 18.9235 23.7416 18.2372C23.8466 17.8751 23.8077 17.4807 23.8776 17.1074Z" fill="#EA5A1A"/>
  <path d="M16.6025 29.3678C16.35 29.3104 16.2325 29.1419 16.1585 28.9343C16.1102 28.816 16.081 28.6903 16.072 28.5621C16.048 27.5989 16.0323 26.6396 16.0156 25.6783C16.0195 25.6376 16.0274 25.5974 16.0392 25.5584C16.2705 25.6306 16.3912 25.7438 16.3958 26.0145C16.4106 26.8476 16.4485 27.6808 16.4915 28.5134C16.5059 28.7923 16.5618 29.0663 16.6025 29.3678Z" fill="#EA5A1A"/>
</svg>