<svg xmlns="http://www.w3.org/2000/svg" width="29" height="28" viewBox="0 0 29 28" fill="none">
  <circle cx="14.5" cy="14" r="14" fill="#E5EDEE"/>
  <path d="M20.7273 13.992V8.89231C20.7273 8.27769 20.2275 7.77786 19.6128 7.77786H14.5051H9.39728C8.78267 7.77786 8.28284 8.27769 8.28284 8.89231V14.0001V19.1079C8.28284 19.7225 8.78267 20.2223 9.39728 20.2223H14.5051L14.5059 20.222L14.5067 20.2223H19.6145C20.2291 20.2223 20.729 19.7225 20.729 19.1079V14.0001C20.729 13.9973 20.7276 13.9948 20.7273 13.992ZM20.1701 8.89231V13.7215H18.2215H18.2198C18.0657 13.7215 17.9412 13.8463 17.9412 14.0001V14.7011C17.9412 14.9671 17.7445 15.1937 17.5024 15.2065C17.3784 15.2132 17.2522 15.1683 17.1588 15.08C17.0655 14.9914 17.014 14.8719 17.014 14.7431V14.0001C17.014 13.8463 16.8894 13.7215 16.7353 13.7215H16.7337H14.7834V12.0498H15.2478C15.5267 12.0498 15.797 11.9336 15.9889 11.7314C16.1834 11.526 16.2826 11.2569 16.2678 10.9738C16.2642 10.9061 16.2539 10.8401 16.2375 10.7766C16.1216 10.3319 15.7023 10.0068 15.2058 10.0068H14.7834V8.33508H19.6128C19.9201 8.33508 20.1701 8.585 20.1701 8.89231ZM8.84006 8.89231C8.84006 8.585 9.08997 8.33508 9.39728 8.33508H14.2264V10.2854C14.2264 10.4392 14.3513 10.564 14.5051 10.564H15.206C15.4721 10.564 15.6992 10.761 15.7114 11.0031C15.7181 11.1321 15.6733 11.2547 15.585 11.3477C15.4964 11.441 15.3768 11.4926 15.2481 11.4926H14.5051C14.3513 11.4926 14.2264 11.6174 14.2264 11.7712V13.7215H12.5548V13.257C12.5548 12.9781 12.4386 12.7079 12.2363 12.5159C12.031 12.3212 11.7619 12.2209 11.4788 12.237C10.9363 12.2655 10.5117 12.7321 10.5117 13.2991V13.7215H8.84006V8.89231ZM14.2264 19.6651H9.39728C9.08997 19.6651 8.84006 19.4152 8.84006 19.1079V14.2787H10.7903C10.9441 14.2787 11.0689 14.1539 11.0689 14.0001V13.2991C11.0689 13.0327 11.2659 12.806 11.508 12.7934C11.5741 12.7906 11.6368 12.8004 11.6947 12.8216C11.7426 12.8394 11.7864 12.867 11.8268 12.9001C11.8354 12.9071 11.8446 12.9127 11.8527 12.9205C11.946 13.0091 11.9976 13.1289 11.9976 13.2573V14.0001C11.9976 14.1539 12.1224 14.2787 12.2762 14.2787H14.2264V15.9504H13.7637H13.762C13.4831 15.9504 13.2129 16.0665 13.0209 16.2691C12.8261 16.4742 12.727 16.7433 12.742 17.0266C12.7704 17.5688 13.2368 17.9937 13.8041 17.9937H13.8057H14.2264V19.6651ZM20.1717 19.1079C20.1717 19.4152 19.9218 19.6651 19.6145 19.6651H14.7853V17.7148C14.7853 17.5607 14.6605 17.4362 14.5067 17.4362H14.5051H13.8057C13.5394 17.4362 13.3126 17.2392 13.3001 16.9971C13.2934 16.8681 13.3382 16.7458 13.4268 16.6525C13.5154 16.5591 13.6352 16.5076 13.764 16.5076H14.5053H14.507C14.6608 16.5076 14.7856 16.383 14.7856 16.229V14.2787H16.4556V14.7431C16.4556 15.022 16.5718 15.2923 16.7743 15.4842C16.8769 15.5815 16.9961 15.6528 17.1243 15.7002C17.1276 15.7013 17.131 15.7018 17.1343 15.703C17.1934 15.7241 17.2541 15.7397 17.3165 15.7495C17.3307 15.7517 17.3455 15.7517 17.3597 15.7537C17.3982 15.7581 17.4363 15.7645 17.4759 15.7645C17.4943 15.7645 17.5129 15.764 17.5313 15.7631H17.5319H17.533C18.0755 15.7347 18.5003 15.2683 18.5003 14.7011V14.2787H20.172L20.1717 19.1079Z" fill="#252525"/>
</svg>