<svg xmlns="http://www.w3.org/2000/svg" width="29" height="28" viewBox="0 0 29 28" fill="none">
  <circle cx="14.5" cy="14" r="14" fill="#E5EDEE"/>
  <path d="M19.7296 14.9075L17.6626 13.8712C17.6088 13.8441 17.5495 13.8301 17.4893 13.8301C17.4291 13.8301 17.3697 13.8441 17.3159 13.8712L16.8161 14.122C16.4783 13.8626 16.1077 13.6494 15.7138 13.4881C16.254 13.0997 16.6574 12.5492 16.8659 11.9159C17.0744 11.2826 17.0772 10.5993 16.874 9.96426C16.6707 9.32926 16.2719 8.77541 15.7349 8.38248C15.198 7.98956 14.5506 7.77785 13.8861 7.77785C13.2216 7.77785 12.5743 7.98956 12.0373 8.38248C11.5004 8.77541 11.1015 9.32926 10.8983 9.96426C10.6951 10.5993 10.6979 11.2826 10.9064 11.9159C11.1148 12.5492 11.5182 13.0997 12.0584 13.4881C11.1707 13.852 10.411 14.4729 9.8762 15.2718C9.34143 16.0706 9.05582 17.0113 9.05579 17.9737C9.05579 18.3256 9.19139 18.8389 9.83066 19.2881C10.745 19.9258 12.3083 20.2214 13.8484 20.2214C14.8641 20.2329 15.876 20.0934 16.851 19.8072C16.9033 19.8519 16.9556 19.8986 17.0118 19.9433L17.2481 20.1378C17.3166 20.1925 17.4017 20.2223 17.4893 20.2223C17.5769 20.2223 17.6619 20.1925 17.7304 20.1378L17.9668 19.9433C18.5864 19.4484 19.0863 18.819 19.4288 18.1024C19.7714 17.3858 19.9477 16.6006 19.9446 15.8058V15.2555C19.9446 15.1832 19.9245 15.1123 19.8865 15.0508C19.8485 14.9893 19.7942 14.9397 19.7296 14.9075ZM11.5237 10.9372C11.5234 10.4683 11.6615 10.0099 11.9208 9.61987C12.18 9.22985 12.5487 8.92576 12.9801 8.74607C13.4116 8.56638 13.8865 8.51917 14.3447 8.6104C14.8029 8.70163 15.2238 8.92721 15.5542 9.2586C15.8847 9.59 16.1098 10.0123 16.2011 10.4721C16.2923 10.9319 16.2457 11.4086 16.067 11.8418C15.8883 12.275 15.5857 12.6453 15.1973 12.9058C14.8089 13.1663 14.3523 13.3054 13.8852 13.3054C13.2595 13.3043 12.6598 13.0546 12.2172 12.6107C11.7746 12.1669 11.5253 11.5651 11.5237 10.9372ZM10.2781 18.6503C9.97594 18.4404 9.83066 18.2187 9.83066 17.9737C9.83018 17.0296 10.1573 16.1147 10.7558 15.3863C11.3542 14.6579 12.1867 14.1613 13.1103 13.982C13.3634 14.048 13.6237 14.082 13.8852 14.0831C14.1468 14.0823 14.4072 14.0477 14.66 13.9801C15.141 14.0751 15.6005 14.2576 16.016 14.5186L15.2412 14.9075C15.1766 14.9397 15.1223 14.9893 15.0843 15.0508C15.0463 15.1123 15.0262 15.1832 15.0262 15.2555V15.8058C15.0229 17.0337 15.4485 18.224 16.2291 19.1695C14.2823 19.6653 11.4153 19.4436 10.2781 18.6503ZM19.1698 15.8058C19.1713 16.4813 19.0209 17.1484 18.7298 17.7574C18.4386 18.3664 18.0143 18.9016 17.4883 19.3231C17.3973 19.2492 17.312 19.1714 17.2268 19.0917C16.7789 18.6712 16.422 18.1626 16.1784 17.5976C15.9347 17.0326 15.8096 16.4234 15.8107 15.8077V15.4966L16.9285 14.9347L17.4883 14.6528L19.1698 15.4966V15.8058Z" fill="#252525"/>
</svg>