<svg xmlns="http://www.w3.org/2000/svg" width="81" height="16" viewBox="0 0 81 16" fill="none">
  <path d="M8.02447 1.46352C8.17415 1.00287 8.82585 1.00287 8.97553 1.46353L10.1839 5.18237C10.2508 5.38838 10.4428 5.52786 10.6594 5.52786H14.5696C15.054 5.52786 15.2554 6.14767 14.8635 6.43237L11.7001 8.73075C11.5248 8.85807 11.4515 9.08375 11.5184 9.28976L12.7268 13.0086C12.8764 13.4693 12.3492 13.8523 11.9573 13.5676L8.79389 11.2693C8.61865 11.1419 8.38135 11.1419 8.20611 11.2693L5.04267 13.5676C4.65081 13.8523 4.12357 13.4693 4.27325 13.0086L5.48157 9.28976C5.54851 9.08375 5.47518 8.85807 5.29994 8.73075L2.1365 6.43237C1.74464 6.14767 1.94603 5.52786 2.43039 5.52786H6.34062C6.55723 5.52786 6.74921 5.38838 6.81614 5.18237L8.02447 1.46352Z" fill="#FCC300"/>
  <path d="M24.0245 1.46352C24.1741 1.00287 24.8259 1.00287 24.9755 1.46353L26.1839 5.18237C26.2508 5.38838 26.4428 5.52786 26.6594 5.52786H30.5696C31.054 5.52786 31.2554 6.14767 30.8635 6.43237L27.7001 8.73075C27.5248 8.85807 27.4515 9.08375 27.5184 9.28976L28.7268 13.0086C28.8764 13.4693 28.3492 13.8523 27.9573 13.5676L24.7939 11.2693C24.6186 11.1419 24.3814 11.1419 24.2061 11.2693L21.0427 13.5676C20.6508 13.8523 20.1236 13.4693 20.2732 13.0086L21.4816 9.28976C21.5485 9.08375 21.4752 8.85807 21.2999 8.73075L18.1365 6.43237C17.7446 6.14767 17.946 5.52786 18.4304 5.52786H22.3406C22.5572 5.52786 22.7492 5.38838 22.8161 5.18237L24.0245 1.46352Z" fill="#FCC300"/>
  <path d="M40.0245 1.46352C40.1741 1.00287 40.8259 1.00287 40.9755 1.46353L42.1839 5.18237C42.2508 5.38838 42.4428 5.52786 42.6594 5.52786H46.5696C47.054 5.52786 47.2554 6.14767 46.8635 6.43237L43.7001 8.73075C43.5248 8.85807 43.4515 9.08375 43.5184 9.28976L44.7268 13.0086C44.8764 13.4693 44.3492 13.8523 43.9573 13.5676L40.7939 11.2693C40.6186 11.1419 40.3814 11.1419 40.2061 11.2693L37.0427 13.5676C36.6508 13.8523 36.1236 13.4693 36.2732 13.0086L37.4816 9.28976C37.5485 9.08375 37.4752 8.85807 37.2999 8.73075L34.1365 6.43237C33.7446 6.14767 33.946 5.52786 34.4304 5.52786H38.3406C38.5572 5.52786 38.7492 5.38838 38.8161 5.18237L40.0245 1.46352Z" fill="#FCC300"/>
  <path d="M56.0245 1.46352C56.1741 1.00287 56.8259 1.00287 56.9755 1.46353L58.1839 5.18237C58.2508 5.38838 58.4428 5.52786 58.6594 5.52786H62.5696C63.054 5.52786 63.2554 6.14767 62.8635 6.43237L59.7001 8.73075C59.5248 8.85807 59.4515 9.08375 59.5184 9.28976L60.7268 13.0086C60.8764 13.4693 60.3492 13.8523 59.9573 13.5676L56.7939 11.2693C56.6186 11.1419 56.3814 11.1419 56.2061 11.2693L53.0427 13.5676C52.6508 13.8523 52.1236 13.4693 52.2732 13.0086L53.4816 9.28976C53.5485 9.08375 53.4752 8.85807 53.2999 8.73075L50.1365 6.43237C49.7446 6.14767 49.946 5.52786 50.4304 5.52786H54.3406C54.5572 5.52786 54.7492 5.38838 54.8161 5.18237L56.0245 1.46352Z" fill="#C4C4C4"/>
  <path d="M72.0245 1.46352C72.1741 1.00287 72.8259 1.00287 72.9755 1.46353L74.1839 5.18237C74.2508 5.38838 74.4428 5.52786 74.6594 5.52786H78.5696C79.054 5.52786 79.2554 6.14767 78.8635 6.43237L75.7001 8.73075C75.5248 8.85807 75.4515 9.08375 75.5184 9.28976L76.7268 13.0086C76.8764 13.4693 76.3492 13.8523 75.9573 13.5676L72.7939 11.2693C72.6186 11.1419 72.3814 11.1419 72.2061 11.2693L69.0427 13.5676C68.6508 13.8523 68.1236 13.4693 68.2732 13.0086L69.4816 9.28976C69.5485 9.08375 69.4752 8.85807 69.2999 8.73075L66.1365 6.43237C65.7446 6.14767 65.946 5.52786 66.4304 5.52786H70.3406C70.5572 5.52786 70.7492 5.38838 70.8161 5.18237L72.0245 1.46352Z" fill="#C4C4C4"/>
</svg>