z<svg xmlns="http://www.w3.org/2000/svg" width="29" height="28" viewBox="0 0 29 28" fill="none">
  <circle cx="14.5" cy="14" r="14" fill="#FCC300" fill-opacity="0.6"/>
  <path d="M19.7256 13.0369H17.4481C17.2469 13.0367 17.054 12.9565 16.9117 12.8139C16.7694 12.6714 16.6893 12.4781 16.6891 12.2765V10.614C16.6894 10.4124 16.7695 10.2191 16.9117 10.0766C17.054 9.93401 17.2469 9.85382 17.4481 9.85358H19.7256C19.9268 9.85382 20.1197 9.93401 20.262 10.0766C20.4043 10.2191 20.4844 10.4124 20.4847 10.614V12.2765C20.4844 12.4781 20.4044 12.6714 20.2621 12.8139C20.1198 12.9565 19.9269 13.0367 19.7256 13.0369ZM17.4481 10.4519C17.4052 10.4519 17.364 10.4689 17.3337 10.4993C17.3033 10.5297 17.2862 10.571 17.2862 10.614V12.2765C17.2862 12.3195 17.3033 12.3607 17.3337 12.3911C17.364 12.4215 17.4052 12.4386 17.4481 12.4386H19.7256C19.7686 12.4386 19.8097 12.4215 19.8401 12.3911C19.8705 12.3607 19.8875 12.3195 19.8876 12.2765V10.614C19.8875 10.571 19.8705 10.5297 19.8401 10.4993C19.8097 10.4689 19.7686 10.4519 19.7256 10.4519H17.4481Z" fill="#252525"/>
  <path d="M21.2214 12.9211C21.1394 12.9211 21.0589 12.8985 20.9889 12.8557L20.0259 12.2671C19.9822 12.2404 19.9461 12.2029 19.921 12.1582C19.896 12.1134 19.8828 12.063 19.8828 12.0117V10.8787C19.8828 10.8274 19.896 10.777 19.921 10.7322C19.9461 10.6875 19.9822 10.65 20.0259 10.6233L20.9889 10.0347C21.0566 9.99337 21.1341 9.97081 21.2133 9.96937C21.2926 9.96794 21.3708 9.98768 21.44 10.0266C21.5091 10.0655 21.5667 10.1221 21.6067 10.1907C21.6468 10.2592 21.6679 10.3373 21.6679 10.4167V12.4733C21.6679 12.592 21.6209 12.7058 21.5371 12.7897C21.4534 12.8736 21.3398 12.9207 21.2214 12.9207V12.9211ZM20.4799 11.8438L21.0708 12.2052V10.6856L20.4799 11.046V11.8438Z" fill="#252525"/>
  <path d="M17.8127 21.7781H10.5238C10.2387 21.7777 9.96539 21.664 9.76381 21.462C9.56223 21.26 9.44883 20.9861 9.44849 20.7004V7.30002C9.44883 7.01436 9.56223 6.7405 9.76382 6.5385C9.9654 6.33651 10.2387 6.22288 10.5238 6.22253H17.8127C18.0978 6.22283 18.3711 6.33645 18.5727 6.53845C18.7743 6.74045 18.8877 7.01434 18.888 7.30002V10.1529C18.888 10.2323 18.8566 10.3084 18.8006 10.3645C18.7446 10.4206 18.6687 10.4521 18.5895 10.4521C18.5103 10.4521 18.4344 10.4206 18.3784 10.3645C18.3224 10.3084 18.2909 10.2323 18.2909 10.1529V7.30002C18.2908 7.17297 18.2404 7.05118 18.1507 6.96134C18.061 6.87151 17.9395 6.82097 17.8127 6.82082H10.5238C10.397 6.82097 10.2755 6.87151 10.1858 6.96134C10.0962 7.05118 10.0457 7.17297 10.0456 7.30002V20.7004C10.0457 20.8275 10.0961 20.9493 10.1857 21.0392C10.2754 21.1291 10.397 21.1796 10.5238 21.1798H17.8127C17.9395 21.1796 18.0611 21.1291 18.1508 21.0392C18.2404 20.9493 18.2908 20.8275 18.2909 20.7004V12.7379C18.2909 12.6586 18.3224 12.5825 18.3784 12.5264C18.4344 12.4703 18.5103 12.4388 18.5895 12.4388C18.6687 12.4388 18.7446 12.4703 18.8006 12.5264C18.8566 12.5825 18.888 12.6586 18.888 12.7379V20.7004C18.8877 20.9861 18.7743 21.26 18.5727 21.4621C18.3712 21.6641 18.0978 21.7777 17.8127 21.7781Z" fill="#252525"/>
  <path d="M15.0179 7.92165H13.3199C13.2407 7.92165 13.1648 7.89014 13.1088 7.83404C13.0528 7.77794 13.0214 7.70185 13.0214 7.62251C13.0214 7.54317 13.0528 7.46708 13.1088 7.41098C13.1648 7.35488 13.2407 7.32336 13.3199 7.32336H15.0179C15.097 7.32336 15.173 7.35488 15.229 7.41098C15.285 7.46708 15.3164 7.54317 15.3164 7.62251C15.3164 7.70185 15.285 7.77794 15.229 7.83404C15.173 7.89014 15.097 7.92165 15.0179 7.92165Z" fill="#252525"/>
  <path d="M15.0179 20.6773H13.3199C13.2407 20.6773 13.1648 20.6458 13.1088 20.5897C13.0528 20.5336 13.0214 20.4575 13.0214 20.3781C13.0214 20.2988 13.0528 20.2227 13.1088 20.1666C13.1648 20.1105 13.2407 20.079 13.3199 20.079H15.0179C15.097 20.079 15.173 20.1105 15.229 20.1666C15.285 20.2227 15.3164 20.2988 15.3164 20.3781C15.3164 20.4575 15.285 20.5336 15.229 20.5897C15.173 20.6458 15.097 20.6773 15.0179 20.6773Z" fill="#252525"/>
  <path d="M18.5895 19.5764H9.74703C9.66785 19.5764 9.59191 19.5449 9.53593 19.4888C9.47994 19.4327 9.44849 19.3566 9.44849 19.2773C9.44849 19.198 9.47994 19.1219 9.53593 19.0658C9.59191 19.0097 9.66785 18.9781 9.74703 18.9781H18.5895C18.6687 18.9781 18.7446 19.0097 18.8006 19.0658C18.8566 19.1219 18.888 19.198 18.888 19.2773C18.888 19.3566 18.8566 19.4327 18.8006 19.4888C18.7446 19.5449 18.6687 19.5764 18.5895 19.5764Z" fill="#252525"/>
  <path d="M18.5895 9.02224H9.74703C9.66785 9.02224 9.59191 8.99072 9.53593 8.93462C9.47994 8.87852 9.44849 8.80243 9.44849 8.7231C9.44849 8.64376 9.47994 8.56767 9.53593 8.51157C9.59191 8.45547 9.66785 8.42395 9.74703 8.42395H18.5895C18.6687 8.42395 18.7446 8.45547 18.8006 8.51157C18.8566 8.56767 18.888 8.64376 18.888 8.7231C18.888 8.80243 18.8566 8.87852 18.8006 8.93462C18.7446 8.99072 18.6687 9.02224 18.5895 9.02224Z" fill="#252525"/>
  <path d="M17.6434 19.5766H10.6877C10.6085 19.5766 10.5326 19.5451 10.4766 19.4889C10.4206 19.4328 10.3892 19.3568 10.3892 19.2774V18.9618C10.3892 17.9569 10.781 17.12 11.5231 16.5421C12.1976 16.0166 13.1113 15.7382 14.1655 15.7382C15.2198 15.7382 16.1337 16.016 16.808 16.5421C17.5499 17.12 17.9419 17.9569 17.9419 18.9618V19.2774C17.9419 19.3568 17.9105 19.4328 17.8545 19.4889C17.7985 19.5451 17.7225 19.5766 17.6434 19.5766ZM10.9862 18.9783H17.3448V18.9618C17.3448 17.0245 15.6323 16.3376 14.1655 16.3376C12.6988 16.3376 10.9862 17.0245 10.9862 18.9618V18.9783Z" fill="#252525"/>
  <path d="M14.1658 15.1944C13.8082 15.1944 13.4586 15.0882 13.1613 14.8891C12.864 14.69 12.6323 14.4071 12.4955 14.0761C12.3587 13.745 12.3229 13.3808 12.3927 13.0294C12.4625 12.678 12.6347 12.3552 12.8876 12.1019C13.1404 11.8485 13.4626 11.676 13.8133 11.6062C14.164 11.5363 14.5275 11.5722 14.8579 11.7094C15.1882 11.8466 15.4705 12.0788 15.6691 12.3768C15.8677 12.6747 15.9737 13.025 15.9736 13.3833C15.973 13.8635 15.7823 14.3239 15.4434 14.6634C15.1045 15.0029 14.645 15.1939 14.1658 15.1944ZM14.1658 12.1697C13.9263 12.1697 13.6922 12.2408 13.4931 12.3741C13.294 12.5074 13.1388 12.6969 13.0472 12.9186C12.9555 13.1402 12.9315 13.3841 12.9782 13.6195C13.0249 13.8548 13.1402 14.071 13.3095 14.2407C13.4788 14.4104 13.6945 14.5259 13.9293 14.5728C14.1642 14.6196 14.4076 14.5957 14.6289 14.5039C14.8501 14.4121 15.0392 14.2567 15.1723 14.0572C15.3054 13.8578 15.3765 13.6232 15.3765 13.3833C15.3761 13.0616 15.2484 12.7533 15.0214 12.5258C14.7945 12.2983 14.4868 12.1702 14.1658 12.1697Z" fill="#252525"/>
</svg>