<svg xmlns="http://www.w3.org/2000/svg" width="29" height="28" viewBox="0 0 29 28" fill="none">
  <circle cx="14.5" cy="14" r="14" fill="#FCC300" fill-opacity="0.6"/>
  <path d="M21.8312 13.1092C21.2196 13.1092 20.6135 13.1823 20.0263 13.3232C19.8243 12.1125 19.4577 11.2478 19.4401 11.2069L19.2828 10.8401L18.8998 10.9557C18.8542 10.9694 17.8826 11.2671 16.7685 11.9451C15.8616 10.3875 14.6926 9.43459 14.6511 9.39185C14.5783 9.46653 13.4885 10.316 12.5473 11.9217C11.4494 11.2604 10.4998 10.9692 10.4552 10.9557L10.0722 10.8401L9.91481 11.2069C9.89714 11.2481 9.52809 12.1186 9.32654 13.3357C8.72356 13.1867 8.1002 13.1092 7.47094 13.1092H7.02405V13.5548C7.02405 17.7317 10.4455 21.13 14.6511 21.13C18.8566 21.13 22.2781 17.7317 22.2781 13.5548V13.1092H21.8312ZM18.7639 11.9503C18.8858 12.3102 19.0563 12.8916 19.1631 13.5845C18.6445 13.7753 18.1475 14.0215 17.6827 14.3195C17.5859 13.7988 17.4167 13.2694 17.1785 12.7401C17.8054 12.3531 18.394 12.0947 18.7639 11.9503ZM10.5916 11.95C10.9526 12.0907 11.5221 12.3406 12.135 12.7148C11.8907 13.2526 11.7178 13.7905 11.6194 14.3195C11.1696 14.031 10.6896 13.7912 10.1891 13.6031C10.2957 12.9042 10.4686 12.3141 10.5916 11.95ZM7.93369 14.0161C9.23642 14.1046 10.4896 14.5648 11.5228 15.3371V15.3372C11.5228 17.1294 12.447 18.8404 13.6667 20.1675C10.569 19.7151 8.15061 17.1611 7.93369 14.0161ZM14.6505 19.8999C13.9905 19.2552 12.4166 17.4916 12.4166 15.3372C12.4166 13.1936 13.9813 11.3211 14.6511 10.6179C15.321 11.3212 16.8855 13.1936 16.8855 15.3372C16.8855 17.4848 15.31 19.2537 14.6505 19.8999ZM15.6355 20.1675C16.8549 18.8407 17.7793 17.1296 17.7793 15.3372V15.3371C18.8125 14.5648 20.0657 14.1045 21.3684 14.016C21.1515 17.1611 18.7332 19.7151 15.6355 20.1675Z" fill="#252525"/>
  <path d="M10.6304 8.65356H9.73657V9.54476H10.6304V8.65356Z" fill="#252525"/>
  <path d="M15.0959 6.87115H14.2021V7.76235H15.0959V6.87115Z" fill="#252525"/>
  <path d="M19.5741 8.65375H18.6803V9.54495H19.5741V8.65375Z" fill="#252525"/>
  <path d="M22.2584 11.3264H21.3646V12.2176H22.2584V11.3264Z" fill="#252525"/>
  <path d="M7.91784 11.327H7.02405V12.2182H7.91784V11.327Z" fill="#252525"/>
</svg>