<svg xmlns="http://www.w3.org/2000/svg" width="29" height="28" viewBox="0 0 29 28" fill="none">
  <circle cx="14.5" cy="14" r="14" fill="#FCC300" fill-opacity="0.6"/>
  <path fill-rule="evenodd" clip-rule="evenodd" d="M14.5568 6.87095C10.7071 6.89691 7.59044 10.0339 7.59065 13.8834C7.59086 15.0445 7.94263 16.1645 8.49168 17.1844L7.38224 20.3338C7.35562 20.4101 7.35119 20.4925 7.36946 20.5712C7.38773 20.65 7.42795 20.722 7.48546 20.7788C7.54297 20.8357 7.61541 20.8751 7.69439 20.8924C7.77337 20.9098 7.85565 20.9044 7.9317 20.8769L10.8979 19.799C12.0116 20.4958 13.2861 20.8958 14.6031 20.8959C18.471 20.896 21.6174 17.751 21.6177 13.8834C21.6178 10.0162 18.4724 6.87199 14.6052 6.87095C14.5894 6.8709 14.5726 6.8709 14.5568 6.87095ZM14.561 7.72567H14.5631C14.5763 7.72563 14.5899 7.72562 14.6031 7.72567C18.0089 7.72555 20.761 10.4779 20.7608 13.8834C20.7606 17.2886 18.0086 20.0391 14.6031 20.039C13.3743 20.039 12.175 19.6723 11.1569 18.9843C11.101 18.9464 11.037 18.9223 10.9701 18.9139C10.9031 18.9055 10.8351 18.913 10.7716 18.9359L8.48958 19.7633L9.33377 17.3696C9.35477 17.3108 9.36264 17.2481 9.35682 17.1859C9.351 17.1237 9.33164 17.0635 9.30008 17.0096C8.74158 16.0625 8.44557 14.9829 8.44537 13.8834C8.44518 10.495 11.1726 7.74966 14.561 7.72567Z" fill="#252525"/>
  <path fill-rule="evenodd" clip-rule="evenodd" d="M13.647 10.0854C13.5907 10.0852 13.5349 10.0961 13.4829 10.1174C13.4308 10.1388 13.3835 10.1703 13.3436 10.21C13.3037 10.2497 13.272 10.2968 13.2504 10.3488C13.2288 10.4008 13.2176 10.4565 13.2175 10.5127V12.4664H11.2639C11.1506 12.4665 11.042 12.5116 10.9619 12.5917C10.8817 12.6718 10.8367 12.7804 10.8365 12.8937V14.82C10.8367 14.9333 10.8817 15.0419 10.9619 15.1221C11.042 15.2022 11.1506 15.2472 11.2639 15.2474H13.2175V17.201C13.2176 17.2573 13.2288 17.313 13.2504 17.365C13.272 17.4169 13.3037 17.4641 13.3436 17.5038C13.3835 17.5435 13.4308 17.5749 13.4829 17.5963C13.5349 17.6177 13.5907 17.6286 13.647 17.6284H15.5712C15.6845 17.6282 15.7931 17.5832 15.8732 17.503C15.9533 17.4229 15.9984 17.3143 15.9985 17.201V15.2474H17.9522C18.0655 15.2472 18.1741 15.2022 18.2542 15.1221C18.3343 15.0419 18.3794 14.9333 18.3795 14.82V12.8937C18.3794 12.7804 18.3343 12.6718 18.2542 12.5917C18.1741 12.5116 18.0655 12.4665 17.9522 12.4664H15.9985V10.5127C15.9984 10.3994 15.9533 10.2908 15.8732 10.2107C15.7931 10.1306 15.6845 10.0855 15.5712 10.0854H13.647ZM14.0744 10.9422H15.1438V12.8937C15.1436 12.95 15.1545 13.0058 15.1759 13.0579C15.1972 13.1099 15.2287 13.1573 15.2684 13.1972C15.3081 13.237 15.3552 13.2687 15.4072 13.2903C15.4592 13.312 15.5149 13.3231 15.5712 13.3232H17.5248V14.3926H15.5712C15.4579 14.3928 15.3492 14.4378 15.2691 14.518C15.189 14.5981 15.1439 14.7067 15.1438 14.82V16.7736H14.0744V14.82C14.0742 14.7067 14.0292 14.5981 13.9491 14.518C13.8689 14.4378 13.7603 14.3928 13.647 14.3926H11.6934V13.3232H13.647C13.7033 13.3231 13.759 13.312 13.811 13.2903C13.8629 13.2687 13.9101 13.237 13.9498 13.1972C13.9895 13.1573 14.0209 13.1099 14.0423 13.0579C14.0637 13.0058 14.0746 12.95 14.0744 12.8937V10.9422Z" fill="#252525"/>
</svg>