<svg xmlns="http://www.w3.org/2000/svg" width="29" height="28" viewBox="0 0 29 28" fill="none">
  <circle cx="14.5" cy="14" r="14" fill="#FCC300" fill-opacity="0.6"/>
  <path d="M17.6608 18.2938C17.02 17.6483 16.4122 17.0433 15.8143 16.4291C15.687 16.298 15.5921 16.2722 15.4204 16.3594C14.9772 16.5877 14.4881 16.7128 13.9897 16.7255C13.4913 16.7381 12.9965 16.6379 12.5423 16.4324C12.0881 16.2269 11.6863 15.9213 11.3669 15.5386C11.0474 15.1559 10.8187 14.7059 10.6978 14.2224C10.5768 13.7388 10.5668 13.2342 10.6685 12.7462C10.7701 12.2582 10.9809 11.7995 11.2848 11.4045C11.5888 11.0094 11.9782 10.6882 12.4239 10.4648C12.8696 10.2414 13.3601 10.1217 13.8586 10.1146C16.3864 10.0948 17.9768 12.609 16.8588 14.8731C16.749 15.0924 16.7891 15.2021 16.952 15.3573C17.5653 15.9437 18.1627 16.547 18.7623 17.1382L17.6608 18.2938ZM13.9074 11.6815C12.9468 11.6673 12.1322 12.4982 12.1794 13.5085C12.2216 14.4014 12.9962 15.167 13.9249 15.1583C14.1558 15.161 14.3849 15.1178 14.5988 15.0311C14.8128 14.9444 15.0074 14.816 15.1712 14.6534C15.335 14.4908 15.4648 14.2971 15.5529 14.0838C15.6411 13.8705 15.6859 13.6418 15.6848 13.411C15.6836 13.1802 15.6365 12.9519 15.5461 12.7395C15.4558 12.5271 15.3241 12.3348 15.1586 12.1738C14.9932 12.0128 14.7974 11.8864 14.5825 11.8018C14.3677 11.7173 14.1382 11.6764 13.9074 11.6815Z" fill="#252525"/>
  <path d="M12.1729 20.9952H11.5036C10.6912 20.9952 9.87816 21.0002 9.06571 20.9952C8.26259 20.9903 7.56809 20.4139 7.53243 19.618C7.48415 18.5354 7.52036 17.4494 7.52036 16.3229C8.00311 16.3229 8.48312 16.3157 8.96148 16.3338C9.00701 16.3338 9.08217 16.4918 9.08327 16.5768C9.09205 17.3803 9.0882 18.1833 9.0882 18.9868V19.4085H12.1729V20.9952Z" fill="#252525"/>
  <path d="M12.1712 7.00409V8.58751H9.09912V11.6562H7.51646C7.51152 11.5695 7.50219 11.4818 7.50219 11.3935C7.50219 10.4978 7.49726 9.60218 7.50219 8.70598C7.50878 7.63044 8.13855 7.00573 9.21048 7.00573C10.0882 7.00573 10.9659 7.00573 11.8437 7.00573L12.1712 7.00409Z" fill="#252525"/>
  <path d="M21.4924 16.3339C21.4924 17.1193 21.4984 17.8768 21.4924 18.6336C21.488 19.034 21.5055 19.4432 21.4304 19.832C21.3059 20.4737 20.6799 20.9838 20.037 20.9915C19.0133 21.0074 17.9897 20.9959 16.9649 20.9942C16.9161 20.9893 16.8677 20.9809 16.8201 20.969C16.8201 20.4979 16.813 20.0262 16.8311 19.5551C16.8311 19.5057 16.9836 19.4234 17.0659 19.4223C17.8602 19.4125 18.6568 19.4141 19.45 19.419C19.9223 19.4223 19.9169 19.4278 19.9136 18.943C19.9086 18.1576 19.9108 17.3722 19.9136 16.5846C19.9136 16.5045 19.9273 16.4244 19.9355 16.3317L21.4924 16.3339Z" fill="#252525"/>
  <path d="M21.4626 11.6627H19.9101V8.59124H18.0998C17.7437 8.59124 17.3866 8.58521 17.0311 8.59124C16.8627 8.59563 16.8068 8.53036 16.8117 8.36692C16.8199 7.98299 16.8166 7.59906 16.815 7.21514C16.815 7.09612 16.8199 6.99575 16.9829 7.00014C18.0498 7.01166 19.119 6.98697 20.1844 7.04072C20.8696 7.07528 21.4653 7.73728 21.4801 8.41683C21.5032 9.46604 21.4873 10.5164 21.4873 11.5661C21.4822 11.599 21.4739 11.6313 21.4626 11.6627Z" fill="#252525"/>
</svg>