<svg xmlns="http://www.w3.org/2000/svg" width="29" height="28" viewBox="0 0 29 28" fill="none">
  <circle cx="14.5" cy="14" r="14" fill="#FCC300" fill-opacity="0.6"/>
  <path d="M10.8816 9.81286C10.7789 9.536 10.6631 9.28136 10.5853 9.01612C10.437 8.50889 10.4024 7.99311 10.5908 7.48758C10.8364 6.82722 11.4866 6.45979 12.1869 6.55925C12.6123 6.62052 13.0182 6.7771 13.3743 7.01727C13.4212 7.04837 13.4698 7.07776 13.5253 7.11297C13.6661 6.99642 13.8015 6.87371 13.9467 6.76638C14.4462 6.39348 14.9936 6.1631 15.6339 6.23659C15.9592 6.27413 16.2687 6.39715 16.5308 6.59309C17.75 7.49203 17.8031 8.80352 17.118 9.9195C17.059 10.0159 16.9892 10.1054 16.9165 10.209C16.9556 10.2432 16.9878 10.2712 17.0224 10.2972C17.2091 10.438 17.4023 10.5706 17.5818 10.7197C18.0779 11.1319 18.3355 11.6562 18.2882 12.3087C18.2783 12.4478 18.3225 12.5305 18.43 12.6231C19.035 13.14 19.467 13.7733 19.6404 14.5577C19.7692 15.1388 19.5013 15.6823 18.9552 15.9215C18.6505 16.0492 18.3353 16.1506 18.0131 16.2244C17.343 16.3878 16.9946 16.8259 16.8576 17.474C16.747 17.9925 16.8309 18.5045 16.8734 19.0206C16.9121 19.4903 16.9662 19.965 16.9361 20.4326C16.8867 21.1897 16.4791 21.7578 15.5517 21.7756C14.4667 21.7968 13.3934 21.7123 12.3914 21.2403C12.0625 21.0855 11.7648 20.8903 11.5349 20.6039C11.5055 20.5673 11.4579 20.5225 11.4171 20.5212C10.6422 20.4914 10.3369 19.8998 10.327 19.2804C10.3143 18.512 10.314 17.7423 10.3167 16.9756C10.3209 16.8639 10.2855 16.7543 10.2167 16.666C9.35511 15.5039 9.17936 14.2279 9.62883 12.8631C9.67884 12.7106 9.67679 12.5948 9.60039 12.4492C9.36538 12.0028 9.22356 11.5342 9.34106 11.0194C9.41563 10.7078 9.58492 10.4267 9.82574 10.2148C10.0666 10.0029 10.3672 9.87035 10.6864 9.83542C10.7521 9.82858 10.8176 9.82004 10.8816 9.81286ZM18.1947 13.06C18.1604 13.1519 18.1402 13.2032 18.1228 13.2558C17.7415 14.405 16.6582 15.2533 15.4506 15.3497C14.7459 15.4058 14.3283 14.9101 14.4914 14.2218C14.5842 13.8294 14.8165 13.5245 15.0769 13.2336C15.2632 13.0255 15.4568 12.8234 15.6343 12.6081C15.9909 12.1761 16.2002 11.6993 16.1361 11.1155C16.0889 10.6821 16.2283 10.2832 16.4941 9.93249C16.572 9.83395 16.6443 9.73126 16.711 9.62487C17.2163 8.78199 17.2173 7.83793 16.4253 7.13348C15.6514 6.44543 14.6305 6.66897 13.9364 7.46502L14.0831 7.62943C14.4297 8.01703 14.6925 8.45283 14.8426 8.9522C14.9604 9.34459 15.0221 9.74416 14.9224 10.1485C14.7302 10.9278 14.0073 11.4162 13.1451 11.3564C12.4918 11.311 11.9663 10.9975 11.4969 10.5658C11.4144 10.49 11.3256 10.4086 11.2229 10.3679C10.7134 10.1659 10.0211 10.5012 9.84979 11.0215C9.72852 11.3882 9.80046 11.7416 9.97175 12.0619C10.1469 12.3867 10.3504 12.6956 10.5798 12.9848C10.9793 13.4893 11.4065 13.9716 11.822 14.4631C12.0663 14.7519 12.2331 14.7785 12.5671 14.6025C12.7275 14.5153 12.8948 14.4414 13.0673 14.3814C13.4712 14.2474 13.8436 14.4156 14.0101 14.8076C14.1814 15.2096 14.1622 15.6238 14.0255 16.0271C13.7172 16.9336 12.7895 17.5687 11.7922 17.5608C11.65 17.5608 11.6028 17.595 11.6107 17.7399C11.6422 18.321 11.6716 18.9 11.6881 19.4807C11.7055 20.084 11.9861 20.4945 12.5322 20.7532C13.5329 21.2277 14.5928 21.31 15.6747 21.2577C16.0488 21.24 16.2773 21.0475 16.3797 20.6907C16.5198 20.2019 16.4575 19.7077 16.3992 19.2158C16.3252 18.5876 16.2382 17.9604 16.378 17.3298C16.5476 16.5655 16.9604 16.0169 17.7394 15.7889C17.9857 15.7168 18.2344 15.6522 18.4808 15.5808C18.9912 15.4331 19.2344 15.1333 19.1525 14.6832C19.0371 14.045 18.6651 13.5446 18.1937 13.06H18.1947ZM10.9652 8.34858C11.0279 9.18907 11.4315 9.98923 12.2694 10.5402C12.5839 10.7532 12.9555 10.8665 13.3355 10.8653C13.82 10.8622 14.2985 10.5464 14.4064 10.1092C14.4658 9.87214 14.4718 9.6249 14.4239 9.38526C14.1992 8.35542 13.5949 7.61713 12.6267 7.18475C12.5272 7.14178 12.4231 7.11025 12.3164 7.09075C11.4959 6.93011 10.9652 7.3683 10.9652 8.34858ZM10.091 13.1717L10.0351 13.1974C9.89918 13.6432 9.85433 14.1117 9.90323 14.5752C9.98477 15.3521 10.2619 16.0418 10.82 16.6017C11.1677 16.9504 11.5822 17.1486 12.0875 17.0498C12.5843 16.9534 13.0149 16.7255 13.3181 16.3102C13.5808 15.9506 13.7 15.5497 13.5791 15.1033C13.5106 14.8462 13.4034 14.7844 13.1523 14.8777C12.9878 14.9392 12.8333 15.0277 12.675 15.106C12.3171 15.2834 11.9707 15.2557 11.6692 15C11.4935 14.851 11.3547 14.6582 11.2037 14.4815C10.8319 14.0461 10.461 13.6095 10.091 13.1717ZM16.6147 11.2665C16.563 11.5314 16.5931 11.8127 16.5154 12.0698C16.3684 12.5568 16.0279 12.9243 15.7 13.2965C15.5048 13.5183 15.2944 13.7333 15.1399 13.9818C15.0371 14.1455 14.9926 14.3609 14.9775 14.5574C14.9621 14.7601 15.1015 14.8678 15.3054 14.8599C15.4421 14.8579 15.5783 14.8419 15.7117 14.812C16.8199 14.5355 17.5085 13.8389 17.7415 12.724C17.834 12.282 17.8737 11.8107 17.5589 11.432C17.3472 11.178 17.0683 10.9787 16.8162 10.7593C16.7288 10.6834 16.6637 10.721 16.6503 10.8277C16.6315 10.9719 16.626 11.1196 16.6147 11.2665ZM11.2266 19.9685C11.1965 19.7545 11.155 19.5583 11.1444 19.3638C11.1125 18.7728 11.0845 18.1815 11.0735 17.5902C11.0701 17.3981 10.9817 17.3168 10.8094 17.2665C10.8006 17.2942 10.7948 17.3227 10.7919 17.3516C10.8042 18.0352 10.8159 18.7161 10.8337 19.3983C10.8403 19.4893 10.862 19.5786 10.8977 19.6625C10.9532 19.8082 11.0396 19.9278 11.2266 19.9685Z" fill="#252525"/>
  <path opacity="0.2" d="M18.2061 13.0578C18.6765 13.5424 19.0485 14.0428 19.1653 14.6823C19.2469 15.1325 19.004 15.4323 18.4935 15.5799C18.2472 15.6514 17.9985 15.7166 17.7522 15.7881C16.9728 16.0161 16.5617 16.5646 16.3904 17.3289C16.2507 17.9595 16.3377 18.5867 16.4117 19.215C16.4699 19.7068 16.5323 20.2011 16.3922 20.6899C16.2894 21.0467 16.0612 21.2391 15.6871 21.2569C14.6053 21.3092 13.5453 21.2268 12.5446 20.7524C11.9986 20.4937 11.718 20.0832 11.7005 19.4799C11.6841 18.8988 11.6546 18.3177 11.6231 17.7391C11.6152 17.5945 11.6625 17.5586 11.8047 17.56C12.8019 17.5678 13.7306 16.9328 14.0379 16.0263C14.175 15.623 14.1928 15.2087 14.0225 14.8068C13.8553 14.4151 13.4836 14.2466 13.0797 14.3792C12.9077 14.4391 12.7409 14.513 12.581 14.6C12.2459 14.776 12.0801 14.7493 11.8358 14.4605C11.4203 13.969 10.9931 13.4867 10.5936 12.9822C10.3642 12.693 10.1607 12.3842 9.98556 12.0594C9.81427 11.7391 9.74096 11.3857 9.86189 11.0193C10.0332 10.499 10.7255 10.1648 11.235 10.3657C11.3377 10.4064 11.4258 10.4878 11.509 10.5636C11.9784 10.9953 12.5025 11.3088 13.1572 11.3542C14.0194 11.414 14.7423 10.9256 14.9345 10.1463C15.0342 9.74264 14.9725 9.34307 14.8547 8.95C14.7046 8.45063 14.4418 8.01483 14.0952 7.62723L13.9485 7.46282C14.6426 6.66676 15.6635 6.44323 16.4374 7.13127C17.2294 7.83573 17.2284 8.77978 16.7231 9.62266C16.6565 9.72906 16.5841 9.83175 16.5062 9.93028C16.2404 10.281 16.101 10.6799 16.1482 11.1133C16.2123 11.6971 16.003 12.1728 15.6464 12.6059C15.4689 12.8212 15.2753 13.0232 15.089 13.2314C14.8286 13.5223 14.5963 13.8272 14.5035 14.2196C14.3401 14.9073 14.7577 15.4029 15.4627 15.3475C16.6717 15.2511 17.7549 14.4028 18.1349 13.2536C18.1527 13.201 18.1719 13.1487 18.2061 13.0578Z" fill="#FCC300"/>
  <path opacity="0.2" d="M10.9614 8.35171C10.9614 7.37142 11.4911 6.93358 12.3126 7.09388C12.4193 7.11338 12.5234 7.14491 12.6229 7.18788C13.5911 7.62025 14.1954 8.35854 14.4201 9.38839C14.468 9.62803 14.462 9.87527 14.4026 10.1123C14.2947 10.5495 13.8161 10.8643 13.3317 10.8684C12.9517 10.8696 12.5801 10.7563 12.2656 10.5433C11.4287 9.99167 11.0251 9.1922 10.9614 8.35171Z" fill="#FCC300"/>
  <path opacity="0.2" d="M10.0889 13.1714C10.4598 13.6083 10.8309 14.0449 11.2023 14.4812C11.3534 14.6579 11.4921 14.8507 11.6679 14.9997C11.9693 15.2554 12.3157 15.2831 12.6737 15.1057C12.8319 15.0274 12.9864 14.9389 13.1509 14.8774C13.402 14.7841 13.5082 14.8459 13.5777 15.103C13.6987 15.5494 13.5795 15.9503 13.3167 16.3099C13.0135 16.7252 12.5829 16.9531 12.0861 17.0495C11.5815 17.1473 11.167 16.9501 10.8186 16.6014C10.2605 16.0416 9.98339 15.3518 9.90186 14.5749C9.85251 14.1115 9.89689 13.643 10.0324 13.1971L10.0889 13.1714Z" fill="#FCC300"/>
  <path opacity="0.2" d="M16.6188 11.2672C16.6301 11.1203 16.6355 10.9726 16.653 10.827C16.6664 10.7217 16.7315 10.6841 16.8188 10.7586C17.071 10.9781 17.3498 11.1773 17.5615 11.4313C17.8764 11.81 17.8356 12.2814 17.7441 12.7233C17.5112 13.8383 16.8226 14.5348 15.7143 14.8114C15.5809 14.8412 15.4448 14.8572 15.308 14.8592C15.1042 14.8671 14.9655 14.7594 14.9802 14.5567C14.9953 14.3602 15.0405 14.1466 15.1426 13.9811C15.2971 13.7326 15.5074 13.5176 15.7027 13.2958C16.0305 12.9229 16.3711 12.5562 16.518 12.0691C16.5958 11.8121 16.567 11.5321 16.6188 11.2672Z" fill="#FCC300"/>
  <path opacity="0.2" d="M11.2212 19.9673C11.0342 19.9266 10.9472 19.807 10.8924 19.6597C10.8566 19.5758 10.8349 19.4865 10.8283 19.3955C10.8105 18.7119 10.7988 18.031 10.7865 17.3488C10.7894 17.3199 10.7952 17.2914 10.804 17.2637C10.9753 17.3149 11.0647 17.3953 11.0681 17.5874C11.0791 18.1787 11.1072 18.77 11.139 19.361C11.1496 19.5589 11.1911 19.7534 11.2212 19.9673Z" fill="#FCC300"/>
</svg>