<svg width="106" height="28" viewBox="0 0 106 28" fill="none" xmlns="http://www.w3.org/2000/svg">
<g id="Layer_1" clip-path="url(#clip0_1_524)">
<path id="Vector" d="M27.8302 18.6076C27.1491 18.4554 26.4998 18.1855 25.9115 17.8101C25.2907 17.426 24.7099 16.9807 24.1778 16.4809C23.6811 16.0225 23.2319 15.5153 22.837 14.9667C22.5222 14.5568 22.2727 14.1006 22.0973 13.6144C21.8568 12.8914 21.7016 12.1427 21.635 11.3836C21.5714 10.6555 21.5425 10.0313 21.5425 9.52275C21.5102 8.38564 21.7067 7.25364 22.1204 6.19397C22.4392 5.39357 22.8883 4.65149 23.4496 3.99788C24.0598 3.29159 24.7682 2.67657 25.5532 2.17167C26.0699 1.82923 26.6681 1.62982 27.287 1.59375C27.7045 1.59708 28.1098 1.7349 28.4428 1.98675C28.5526 2.05032 28.6046 2.21791 28.6046 2.49531C28.6067 2.69941 28.5505 2.89986 28.4428 3.07323C28.3769 3.17002 28.2914 3.25192 28.1918 3.31363C28.0923 3.37535 27.9809 3.41551 27.8649 3.43153C27.5124 3.49511 27.1541 3.58179 26.79 3.68582C26.312 3.86605 25.8756 4.14128 25.507 4.4949C25.2219 4.75441 24.9626 5.04083 24.7326 5.3502C24.4602 5.72358 24.2314 6.1269 24.0507 6.55227C23.8344 7.06184 23.6717 7.59252 23.5652 8.13576C23.4375 8.78673 23.3756 9.44888 23.3803 10.1122C23.4229 11.5771 23.871 13.0015 24.6748 14.227C24.9348 14.5506 25.1834 14.8396 25.4145 15.0939C25.6457 15.3481 25.848 15.562 25.9924 15.7296C26.1369 15.8972 26.3334 16.0648 26.501 16.2266C26.7386 16.4343 27.0029 16.6092 27.287 16.7467C27.4438 16.8238 27.6061 16.8895 27.7724 16.9432L28.2579 17.1166C28.3679 17.168 28.4611 17.2496 28.5266 17.3519C28.5921 17.4542 28.6271 17.573 28.6277 17.6945C28.6293 17.9397 28.5433 18.1775 28.385 18.3649C28.3324 18.452 28.2543 18.5209 28.1613 18.5623C28.0683 18.6036 27.9648 18.6154 27.8649 18.596L27.8302 18.6076Z" fill="#2C255E"/>
<path id="Vector_2" d="M37.6098 15.093L37.7485 15.4744C37.7929 15.5967 37.8164 15.7257 37.8178 15.8558C37.8237 15.9657 37.7863 16.0736 37.7138 16.1563C37.6433 16.2355 37.5565 16.2985 37.4595 16.3413C37.3599 16.3879 37.2551 16.4228 37.1474 16.4453C37.0487 16.4672 36.948 16.4789 36.8469 16.4799C36.6842 16.472 36.5268 16.4192 36.3922 16.3274C36.2576 16.2356 36.151 16.1084 36.0841 15.9598C35.8589 15.5548 35.6952 15.1185 35.5986 14.6653C35.4773 14.151 35.3733 13.6019 35.2866 13.024C35.1999 12.4461 35.1189 11.926 35.0438 11.4636C34.9601 11.8935 34.8079 12.3072 34.5931 12.6888C34.3308 13.1991 34.0088 13.6763 33.6337 14.1105C33.2612 14.5487 32.8339 14.9372 32.3623 15.2663C31.9618 15.5686 31.4769 15.7383 30.9753 15.7518C30.6563 15.7668 30.3395 15.6906 30.0622 15.5322C29.8366 15.4019 29.6492 15.2145 29.5189 14.9889C29.3923 14.7629 29.3063 14.5165 29.2647 14.2608C29.2202 14.0128 29.197 13.7614 29.1953 13.5095C29.2218 12.8652 29.3506 12.2293 29.5768 11.6255C29.8403 10.8605 30.1892 10.1277 30.617 9.44095C31.0322 8.76338 31.5465 8.15172 32.1427 7.62628C32.6422 7.15863 33.2964 6.89121 33.9805 6.875C34.1407 6.87817 34.2999 6.90147 34.4544 6.94435C34.6384 6.99244 34.8197 7.05033 34.9976 7.11773C35.1817 7.18725 35.3596 7.2723 35.5293 7.372C35.6969 7.47602 35.8471 7.56849 35.9685 7.66096C36.2357 7.88883 36.4222 8.19695 36.5002 8.5394C36.5944 8.91979 36.6638 9.30587 36.7082 9.69523C36.818 10.4696 36.8989 11.1631 36.9625 11.7873C37.0333 12.4532 37.1492 13.1135 37.3093 13.7638L37.448 14.6191L37.6098 15.093ZM31.0909 13.8909C31.0864 13.902 31.0864 13.9145 31.0909 13.9256C31.0934 13.937 31.0934 13.9488 31.0909 13.9602C31.3618 13.9093 31.6067 13.7664 31.7844 13.5557C32.0717 13.2741 32.3346 12.9686 32.5704 12.6426C32.843 12.2762 33.0938 11.8941 33.3216 11.4983C33.5188 11.1635 33.6851 10.8114 33.8186 10.4465C33.8822 10.3078 33.9516 10.1576 34.0382 9.98419C34.1249 9.81081 34.2058 9.64322 34.2925 9.46407C34.3735 9.30349 34.443 9.1374 34.5006 8.96705C34.5485 8.84125 34.5758 8.70856 34.5815 8.57407C34.5102 8.54784 34.4407 8.51695 34.3734 8.4816C34.3083 8.45133 34.2373 8.43556 34.1654 8.43538C33.9963 8.43608 33.8291 8.4713 33.6741 8.53887C33.5191 8.60644 33.3795 8.70495 33.2639 8.82836C33.0018 9.09244 32.7727 9.38741 32.5819 9.70678C32.4012 10.0068 32.2428 10.3197 32.108 10.643C32.0356 10.8408 31.9507 11.0339 31.8537 11.2209C31.6333 11.6188 31.4514 12.0368 31.3105 12.4692C31.1703 12.8866 31.0962 13.3234 31.0909 13.7638V13.8909Z" fill="#2C255E"/>
<path id="Vector_3" d="M41.6293 12.2323C41.8586 11.994 42.0358 11.7106 42.1495 11.4001L42.5309 10.4292L42.5771 10.2904C42.7002 9.97919 42.839 9.67443 42.9932 9.37735C43.1805 9.01368 43.397 8.66579 43.6405 8.33709C43.8724 8.02191 44.1444 7.73828 44.4496 7.49334C44.7016 7.27816 45.0198 7.15578 45.3511 7.14659C45.5767 7.20854 45.7783 7.33752 45.929 7.51646C46.0616 7.69044 46.1633 7.88593 46.2295 8.09438C46.2989 8.30243 46.3624 8.52203 46.4144 8.74164C46.4649 8.96072 46.5385 9.17383 46.6341 9.37735C46.8394 9.83599 46.9907 10.317 47.0849 10.8106C47.1831 11.3191 47.2698 11.8393 47.3391 12.3594C47.4085 12.8795 47.4894 13.3996 47.5819 13.9082C47.6665 14.3925 47.8062 14.8656 47.998 15.3183C47.9854 15.4368 47.9412 15.5498 47.8701 15.6453C47.7989 15.7409 47.7034 15.8156 47.5934 15.8616C47.3972 15.9662 47.1799 16.0255 46.9577 16.0349C46.8325 16.0401 46.7079 16.0143 46.595 15.9599C46.4821 15.9055 46.3844 15.824 46.3104 15.7228C46.1453 15.4927 46.0238 15.2341 45.9521 14.96C45.8661 14.6532 45.8043 14.3402 45.7672 14.0238C45.7379 13.7506 45.6876 13.4802 45.617 13.2147C45.534 12.9229 45.4722 12.6254 45.432 12.3247C45.3858 11.9953 45.3338 11.6601 45.2702 11.3191C45.2066 10.9782 45.1373 10.6661 45.0506 10.3714C44.9812 10.1106 44.8592 9.86673 44.6923 9.65474C44.4552 10.0256 44.2429 10.4117 44.0566 10.8106C43.8948 11.1747 43.7503 11.5214 43.6174 11.8508L43.2359 12.8217C43.1066 13.1529 42.9521 13.4736 42.7736 13.7811C42.5821 14.1474 42.3577 14.4956 42.1032 14.8213C41.9371 15.0287 41.7426 15.2116 41.5253 15.3645C41.3817 15.4704 41.2155 15.5416 41.0398 15.5726C40.8945 15.595 40.7477 15.6065 40.6006 15.6073C40.3891 15.5903 40.1876 15.5097 40.0227 15.3761C39.92 15.3189 39.8346 15.235 39.7756 15.1333C39.7166 15.0315 39.6862 14.9158 39.6875 14.7982C39.6875 13.8273 39.6875 12.9257 39.6875 12.0935C39.6875 11.2613 39.6875 10.3598 39.6875 9.45825C39.6875 9.19819 39.6875 8.93234 39.6875 8.66072C39.6875 8.3891 39.6875 8.12906 39.6875 7.86321C39.6879 7.67722 39.7232 7.49294 39.7916 7.31997C39.8571 7.15125 39.9856 7.01452 40.1499 6.93855C40.2422 6.94432 40.3349 6.94432 40.4273 6.93855H40.6815C40.7682 6.93357 40.8549 6.94638 40.9364 6.9762C41.0179 7.00602 41.0925 7.0522 41.1554 7.11191C41.2739 7.23151 41.3612 7.37837 41.4097 7.53958C41.4621 7.71288 41.4969 7.89099 41.5137 8.07126C41.5137 8.25619 41.5137 8.41222 41.5137 8.53358C41.5116 8.69723 41.531 8.86047 41.5716 9.01905C41.6114 9.17775 41.6308 9.34088 41.6293 9.50449C41.6293 10.0824 41.6293 10.5621 41.6293 10.9608C41.6293 11.3596 41.6293 11.7468 41.6293 12.1167V12.2323Z" fill="#2C255E"/>
<path id="Vector_4" d="M54.2761 14.3036C54.3601 14.2997 54.444 14.3143 54.5219 14.3462C54.5997 14.3782 54.6697 14.4267 54.7268 14.4885C54.8424 14.6143 54.9046 14.7801 54.9002 14.9509C54.9082 15.0861 54.8625 15.219 54.7731 15.3207C54.6807 15.4172 54.5654 15.4888 54.4379 15.5288C54.2836 15.5787 54.1249 15.6135 53.964 15.6328C53.7848 15.6328 53.6115 15.679 53.4439 15.6906L52.6926 15.4825C52.4305 15.4129 52.1836 15.2953 51.9644 15.1358C51.5772 14.8121 51.2073 14.4654 50.8432 14.0955C50.4831 13.7297 50.1967 13.2981 49.9995 12.8241C49.912 12.7138 49.8454 12.5885 49.803 12.4543C49.751 12.304 49.7048 12.1422 49.6643 11.9804C49.6271 11.8282 49.6001 11.6738 49.5834 11.518C49.5764 11.3987 49.5764 11.2791 49.5834 11.1597C49.5855 10.8334 49.6204 10.5082 49.6874 10.1888C49.7579 9.84788 49.8624 9.51487 49.9995 9.19481C50.1333 8.8791 50.304 8.58037 50.508 8.30484C50.7072 8.03914 50.9494 7.80863 51.2247 7.62288L52.1031 7.2299C52.3169 7.17211 52.5365 7.10277 52.7504 7.02186C52.9733 6.94427 53.2078 6.90518 53.4439 6.90627C53.7025 6.91256 53.9559 6.97988 54.1836 7.10276C54.3677 7.28818 54.489 7.5267 54.5304 7.7847C54.4987 7.89825 54.452 8.0071 54.3917 8.10835C54.355 8.17516 54.3055 8.23407 54.246 8.28168C54.1865 8.32929 54.1181 8.36464 54.0449 8.38573C53.8895 8.46304 53.7208 8.5101 53.5479 8.52443C53.3831 8.5429 53.2227 8.58984 53.074 8.66314C52.8541 8.76527 52.645 8.88917 52.4498 9.033C52.2938 9.16014 52.1725 9.26416 52.08 9.35663C51.9838 9.44945 51.9054 9.55914 51.8488 9.68026C51.7261 9.85134 51.6468 10.0497 51.6176 10.2582C51.5899 10.4496 51.5745 10.6427 51.5714 10.8361C51.5732 11.1654 51.6239 11.4926 51.7217 11.807C51.8167 12.1238 51.9445 12.4298 52.1031 12.7201C52.2451 12.9873 52.4198 13.2358 52.6232 13.4598C52.7792 13.638 52.9626 13.7901 53.1665 13.9106C53.2709 14.0296 53.3986 14.1259 53.5418 14.1935C53.6849 14.2611 53.8404 14.2986 53.9987 14.3036H54.2761Z" fill="#2C255E"/>
<path id="Vector_5" d="M56.6562 11.6715C56.6579 11.0868 56.7316 10.5045 56.8759 9.93778C57.0095 9.38541 57.232 8.85843 57.5347 8.37742C57.8137 7.93119 58.1839 7.54909 58.6212 7.25626C59.0683 6.96741 59.5915 6.81851 60.1237 6.82861C60.483 6.82227 60.84 6.88504 61.1756 7.01353C61.4541 7.12704 61.7089 7.29169 61.9268 7.49897C62.1235 7.69195 62.2771 7.92436 62.3776 8.18093C62.4768 8.43512 62.5278 8.70558 62.5279 8.97845C62.5276 9.69189 62.2547 10.3783 61.765 10.8971C61.5071 11.169 61.1964 11.3853 60.8519 11.5328C60.4614 11.7025 60.041 11.7929 59.6152 11.7987C59.439 11.826 59.2597 11.826 59.0835 11.7987C58.9037 11.7631 58.7261 11.7168 58.5518 11.66C58.5449 11.7253 58.5449 11.7911 58.5518 11.8565V11.9836C58.5452 12.4454 58.6399 12.9031 58.8292 13.3244C58.9686 13.605 59.1655 13.8531 59.4071 14.0525C59.5752 14.1967 59.7723 14.3031 59.985 14.3646C60.1058 14.3998 60.2297 14.423 60.3549 14.434C60.7757 14.4519 61.1917 14.3388 61.5454 14.1103L62.5972 13.3937L62.8515 13.4977C62.9543 13.547 63.042 13.6229 63.1058 13.7173C63.117 13.7914 63.1325 13.8647 63.152 13.937C63.163 14.0175 63.163 14.0992 63.152 14.1797C63.1431 14.3729 63.0833 14.5603 62.9786 14.7229C62.8855 14.8652 62.7726 14.9936 62.6434 15.1043C62.3208 15.4011 61.9386 15.6257 61.5223 15.7632C61.0808 15.8766 60.6256 15.9272 60.17 15.9134C59.8594 15.9036 59.5519 15.8491 59.2569 15.7516C58.942 15.6658 58.6362 15.5496 58.3438 15.4049C58.0172 15.1695 57.7254 14.8893 57.4769 14.5727C57.2733 14.3049 57.1098 14.009 56.9915 13.6942C56.8759 13.385 56.7982 13.0629 56.7603 12.7349C56.7256 12.3939 56.6736 12.0414 56.6562 11.6715ZM58.6674 10.4232C58.7622 10.4449 58.8591 10.4565 58.9563 10.4579C59.0893 10.4579 59.1933 10.4579 59.2684 10.4579C59.7082 10.4859 60.1422 10.3454 60.482 10.0649C60.6176 9.94721 60.726 9.80153 60.7998 9.63792C60.8736 9.4743 60.9111 9.29664 60.9097 9.11715C60.9045 8.9108 60.8403 8.71026 60.7248 8.53923C60.6719 8.45233 60.5971 8.38092 60.5078 8.33221C60.4185 8.28351 60.3179 8.25922 60.2162 8.26182C60.0648 8.26244 59.9138 8.27793 59.7654 8.30807C59.6969 8.32208 59.6319 8.34976 59.5743 8.38948C59.5167 8.4292 59.4677 8.48014 59.4302 8.53923C59.3656 8.62039 59.2961 8.69758 59.2222 8.77039C59.1338 8.86716 59.0599 8.97616 59.0026 9.09402C58.9231 9.26179 58.8574 9.43573 58.8061 9.61414C58.7331 9.87857 58.6866 10.1496 58.6674 10.4232Z" fill="#2C255E"/>
<path id="Vector_6" d="M64.9542 15.1868C64.9946 15.0479 65.0141 14.9038 65.012 14.7592C65.012 14.5511 65.012 14.2968 65.012 13.9847C65.012 13.6727 65.012 13.3779 65.012 13.037C65.012 12.696 65.012 12.3897 65.012 12.1008C65.012 11.8118 65.012 11.5691 65.012 11.361C65.012 11.153 65.012 11.0374 65.012 11.0027V10.2399C65.012 9.90467 65.012 9.5637 64.9773 9.22273C64.9426 8.88176 64.9368 8.54656 64.9195 8.20559V8.11314C64.9199 7.97301 64.8883 7.83463 64.8271 7.70859C64.7633 7.5752 64.7316 7.42875 64.7346 7.28094C64.7825 7.10929 64.8696 6.95104 64.9888 6.8186C65.1547 6.69466 65.3607 6.63697 65.5668 6.65678C65.7848 6.64693 66.0012 6.69903 66.1909 6.80705C66.3362 6.8987 66.4556 7.02602 66.5377 7.1769C66.616 7.33268 66.6668 7.50083 66.6879 7.67392C66.6879 7.85885 66.7284 8.038 66.7457 8.20559L66.8151 9.43079C67.0032 9.27503 67.1668 9.09191 67.3005 8.88755C67.4681 8.6506 67.6472 8.39054 67.8322 8.11314C68.0171 7.83574 68.2078 7.56989 68.4101 7.30405C68.5928 7.06519 68.8022 6.84802 69.0343 6.65678C69.1797 6.59231 69.3375 6.56073 69.4966 6.56431C69.8068 6.54987 70.1149 6.62191 70.3866 6.77237C70.6286 6.93301 70.8112 7.16847 70.9067 7.44276C70.8588 7.6179 70.7719 7.7799 70.6524 7.91663C70.5137 8.09579 70.3577 8.28072 70.1786 8.49455L69.6006 9.07246C69.4223 9.26601 69.2562 9.47061 69.1036 9.68505C68.8476 9.96565 68.6156 10.2672 68.4101 10.5866C68.1823 10.9371 67.974 11.2998 67.786 11.6731C67.6128 12.015 67.4584 12.3661 67.3236 12.7249C67.2191 12.9789 67.1567 13.2483 67.1387 13.5224C67.1387 13.6496 67.1387 13.8229 67.1387 14.0425C67.1387 14.2621 67.1387 14.4413 67.1387 14.5627C67.138 14.7562 67.1226 14.9494 67.0925 15.1406C67.0651 15.3279 67.0024 15.5084 66.9075 15.6723C66.8189 15.832 66.6917 15.9671 66.5377 16.0652C66.3636 16.1701 66.1629 16.2223 65.9597 16.2155C65.8303 16.2218 65.7009 16.2014 65.5797 16.1557C65.4584 16.1099 65.3478 16.0398 65.2547 15.9497C65.1667 15.8646 65.0975 15.762 65.0517 15.6485C65.0059 15.535 64.9845 15.4132 64.9888 15.2908L64.9542 15.1868Z" fill="#2C255E"/>
<path id="Vector_7" d="M78.014 15.1631C77.6945 15.1135 77.399 14.9638 77.1702 14.7354C76.9504 14.4821 76.7567 14.2071 76.5923 13.9148C76.443 13.6497 76.3192 13.371 76.2224 13.0826C76.101 12.7474 75.9739 12.3371 75.8525 11.8574C75.7312 11.3777 75.6041 10.7825 75.4827 10.2393C75.3613 9.69601 75.2631 9.29147 75.2053 9.01408C75.0377 9.83472 74.8585 10.6322 74.6736 11.4066C74.4887 12.181 74.3037 12.9208 74.0957 13.6143C73.8876 14.3078 73.7258 14.9435 73.5178 15.5214C73.3553 16.022 73.1623 16.5123 72.9399 16.9893C72.9134 17.0447 72.8701 17.0902 72.816 17.1193C72.762 17.1484 72.7001 17.1595 72.6393 17.1511C72.4034 17.1315 72.1746 17.0605 71.969 16.9431C71.7807 16.8635 71.6227 16.7258 71.5182 16.5501C71.4297 16.3872 71.3858 16.2037 71.391 16.0184C71.5105 15.5124 71.6729 15.0174 71.8765 14.5389C71.9516 14.354 72.125 13.8223 72.385 12.9439L73.4947 9.199C73.7097 8.43917 73.8796 7.66726 74.0032 6.88733C74.1708 5.91644 74.3442 4.73171 74.5118 3.32737C74.6024 3.17235 74.6797 3.00996 74.7429 2.84193C74.7652 2.74875 74.8186 2.66595 74.8942 2.60713C74.9699 2.54831 75.0633 2.51697 75.1591 2.51829C75.5681 2.47369 75.9794 2.58062 76.3149 2.81882V3.69725C76.3182 4.13028 76.3491 4.56266 76.4073 4.99177C76.4709 5.48878 76.5171 5.91645 76.546 6.28631C76.5749 6.65618 76.5923 6.97402 76.5923 7.23409C76.6234 7.70671 76.7009 8.17514 76.8235 8.63265C76.9275 9.01407 77.0257 9.41862 77.1008 9.84628C77.2109 10.7282 77.5191 11.5739 78.0024 12.3198C78.7421 10.2585 79.347 8.41303 79.8171 6.78331C80.2332 5.38196 80.5689 3.95796 80.8226 2.51829C80.8804 2.27557 81.1174 2.14844 81.5161 2.14844C82.094 2.14844 82.4119 2.33337 82.487 2.72635C82.6053 3.35885 82.6595 4.00166 82.6488 4.64504C82.6488 4.77218 82.6488 4.95711 82.6488 5.22295C82.6488 5.48879 82.6488 5.80086 82.6141 6.19385C82.6063 6.34786 82.6063 6.50216 82.6141 6.65617V7.41902C82.6043 7.52667 82.6043 7.635 82.6141 7.74265C82.6932 10.4903 82.9947 13.227 83.5157 15.9259C83.5157 15.9606 83.5157 15.978 83.5157 15.9837C83.5182 15.9952 83.5182 16.007 83.5157 16.0184C83.5157 16.2842 83.2614 16.4229 82.7528 16.4345C82.3865 16.4111 82.0414 16.2549 81.7819 15.9953C81.4253 15.6531 81.1831 15.209 81.0884 14.7239C80.883 13.9711 80.7895 13.1922 80.8111 12.4122V11.4644C80.8111 11.1119 80.8111 10.7709 80.8111 10.4357C80.8111 10.1006 80.8111 9.80582 80.8111 9.5342C80.8092 9.3411 80.7977 9.14821 80.7764 8.95628C80.7301 9.12966 80.655 9.38394 80.5452 9.71913C80.4354 10.0543 80.3198 10.4357 80.1869 10.8403C80.054 11.2448 79.9211 11.6667 79.7824 12.0886L79.4125 13.2444C79.1351 14.0015 78.9675 14.4349 78.9039 14.5389C78.6728 14.9724 78.3954 15.1862 78.0717 15.1862L78.014 15.1631Z" fill="#E85224"/>
<path id="Vector_8" d="M88.3927 14.9698C88.3929 15.0988 88.3611 15.2259 88.3002 15.3397C88.2079 15.503 88.0909 15.6512 87.9534 15.7789C87.709 15.7804 87.4651 15.7571 87.2253 15.7095C87.0119 15.6687 86.8127 15.5731 86.6474 15.4321C86.4722 15.2759 86.3408 15.0767 86.2659 14.8542C86.1614 14.5098 86.1145 14.1505 86.1272 13.7908C86.1258 13.5269 86.0987 13.2636 86.0463 13.0049C85.9906 12.7467 85.9634 12.4831 85.9654 12.2189C85.9677 11.4693 85.9214 10.7203 85.8267 9.9766C85.7319 9.23296 85.6856 8.48395 85.688 7.7343C85.6829 7.58736 85.7165 7.44164 85.7854 7.3118C85.8544 7.18196 85.9564 7.07256 86.081 6.99457C86.225 6.95028 86.3717 6.91552 86.5202 6.89053L86.9825 6.80963C87.1647 6.85461 87.332 6.94622 87.468 7.07547C87.5778 7.19105 87.676 7.30665 87.7685 7.41067C87.7685 7.56671 87.7396 7.72274 87.7338 7.873C87.728 8.02325 87.7338 8.19085 87.7338 8.35844C87.7338 8.93636 87.7627 9.57206 87.8263 10.2309C87.8899 10.8897 87.9534 11.5254 88.0343 12.1264C88.1153 12.7275 88.1846 13.2823 88.254 13.7677C88.3233 14.2532 88.3753 14.6404 88.4042 14.9236L88.3927 14.9698ZM86.3584 1.95515C86.477 1.8643 86.6261 1.82287 86.7745 1.83956C86.9357 1.8416 87.0956 1.86891 87.2484 1.92047C87.4085 1.97649 87.5602 2.05427 87.6991 2.15164C87.8276 2.24529 87.9407 2.35837 88.0343 2.48682C88.1314 2.6372 88.1751 2.81586 88.1583 2.99407C88.1415 3.17227 88.0653 3.33965 87.9419 3.46928C87.758 3.58121 87.5441 3.63367 87.3293 3.61953C87.1528 3.62013 86.9772 3.59283 86.8092 3.53863C86.6437 3.49288 86.4846 3.42688 86.3353 3.34214C86.2124 3.27788 86.0995 3.19611 86.0001 3.09941C85.963 3.07019 85.9325 3.03346 85.9106 2.99163C85.8887 2.9498 85.8759 2.90383 85.873 2.85669C85.8692 2.69296 85.8886 2.52952 85.9307 2.37125C85.9654 2.22099 86.1099 2.08228 86.3584 1.94358V1.95515Z" fill="#E85224"/>
<path id="Vector_9" d="M92.1429 0.810561C92.1465 0.616079 92.1697 0.422459 92.2122 0.232646L92.5127 0.0823819C92.6077 0.0422167 92.7101 0.0225389 92.8132 0.0246045C93.0336 0.0151808 93.2526 0.062959 93.4489 0.163299C93.5994 0.246013 93.7266 0.365262 93.8188 0.510051C93.9071 0.655113 93.966 0.816121 93.9922 0.983928C94.0214 1.1558 94.0369 1.32974 94.0384 1.50407C94.0384 1.8277 94.0384 2.08198 94.0384 2.34782C94.0384 2.61366 94.0384 2.82171 94.0384 3.05288C94.0384 3.28404 94.0384 3.54411 94.0384 3.78105C94.0384 4.018 94.0384 4.26649 94.0384 4.50922C94.0384 4.75194 94.0384 4.85597 94.0384 5.0409C94.0384 5.22584 94.0384 5.42233 94.0384 5.61882C94.0291 5.70332 94.0291 5.7886 94.0384 5.8731C94.0384 5.95401 94.1251 5.98868 94.2465 5.98868C94.6069 5.99713 94.9652 5.93021 95.2983 5.79219C95.6321 5.65685 95.9898 5.59003 96.3501 5.5957C96.4406 5.58742 96.5315 5.60744 96.6101 5.65298C96.6888 5.69853 96.7514 5.76736 96.7893 5.84998C96.8626 6.0097 96.9019 6.18286 96.9049 6.35855C96.9148 6.52779 96.8658 6.69524 96.7662 6.83245C96.675 6.94903 96.5557 7.04051 96.4194 7.09828C96.2751 7.1647 96.124 7.21509 95.9687 7.24855L95.4948 7.37567C95.334 7.44667 95.1678 7.50466 94.9977 7.54906C94.8127 7.60316 94.6313 7.66879 94.4545 7.74554C94.2923 7.82041 94.1439 7.92199 94.0153 8.04605C93.9552 8.1069 93.9079 8.17916 93.8762 8.25856C93.8444 8.33795 93.8288 8.4229 93.8304 8.5084C93.8304 8.6182 93.8304 8.71644 93.8304 8.80891C93.8304 8.90137 93.8304 8.99385 93.8304 9.08631C93.8304 9.17878 93.8304 9.27702 93.8304 9.37527C93.8304 9.47352 93.8304 9.58331 93.8304 9.68733C93.8333 10.4103 93.8835 11.1323 93.9806 11.8487C94.0789 12.6 94.1944 13.3166 94.3158 14.0101C94.362 14.2298 94.4141 14.4436 94.4776 14.6574C94.5347 14.8449 94.5658 15.0394 94.5701 15.2353C94.5796 15.341 94.5659 15.4475 94.53 15.5473C94.494 15.6471 94.4367 15.7379 94.362 15.8132C94.2306 15.9339 94.072 16.0212 93.8997 16.0675C93.8087 16.0904 93.7159 16.1059 93.6223 16.1138C93.4096 16.112 93.2046 16.0341 93.0444 15.8942C92.86 15.7443 92.7069 15.5598 92.5936 15.3509C92.5002 15.065 92.4344 14.7709 92.3971 14.4725C92.3453 14.1354 92.3106 13.7959 92.2931 13.4554C92.2469 12.7041 92.218 11.9528 92.2006 11.2015C92.1833 10.4502 92.2006 9.70467 92.1544 8.9476C92.1544 8.88981 92.1544 8.83202 92.1544 8.77423C92.144 8.71386 92.1245 8.65541 92.0966 8.60087C91.8565 8.63566 91.6228 8.70576 91.4031 8.80891C91.2013 8.90543 90.9795 8.95294 90.7559 8.9476C90.4645 8.95513 90.1819 8.84711 89.9699 8.64709C89.7979 8.49575 89.6358 8.33361 89.4844 8.16164C89.4945 7.94176 89.5333 7.72415 89.6 7.51438C89.7881 7.44535 89.9814 7.39124 90.1779 7.35257L90.6749 7.2601C90.8368 7.2312 91.0043 7.19074 91.1719 7.14451C91.373 7.0904 91.567 7.01281 91.7499 6.91334C91.9984 6.91334 92.1371 6.82088 92.1775 6.62439C92.2138 6.46114 92.2332 6.2946 92.2353 6.12739C92.2353 5.84999 92.2353 5.61882 92.2353 5.42233C92.2353 5.22584 92.2353 4.95999 92.2353 4.60168C92.2353 4.37052 92.2353 4.13935 92.2353 3.89663C92.2353 3.6539 92.2353 3.42274 92.2353 3.19157L92.1429 0.810561Z" fill="#E85224"/>
<path id="Vector_10" d="M98.6417 15.1868C98.6791 15.0473 98.6985 14.9036 98.6995 14.7592C98.6995 14.5511 98.6995 14.2968 98.6995 13.9847C98.6995 13.6727 98.6995 13.3779 98.6995 13.037C98.6995 12.696 98.6995 12.3897 98.6995 12.1008C98.6995 11.8118 98.6995 11.5691 98.6995 11.361C98.6995 11.153 98.6995 11.0374 98.6995 11.0027V10.2399C98.6995 9.90467 98.6995 9.5637 98.6648 9.22273C98.6301 8.88176 98.6243 8.54656 98.607 8.20559V8.11314C98.6074 7.97301 98.5758 7.83463 98.5145 7.70859C98.4508 7.5752 98.4191 7.42875 98.4221 7.28094C98.4671 7.1081 98.5545 6.94919 98.6763 6.8186C98.8422 6.69466 99.0482 6.63697 99.2543 6.65678C99.4723 6.64693 99.6887 6.69903 99.8784 6.80705C100.022 6.90022 100.141 7.02719 100.225 7.1769C100.303 7.33268 100.354 7.50083 100.375 7.67392C100.375 7.85885 100.416 8.038 100.433 8.20559L100.503 9.43079C100.689 9.27349 100.853 9.0906 100.988 8.88755C101.156 8.6506 101.335 8.39054 101.52 8.11314C101.705 7.83574 101.895 7.56989 102.098 7.30405C102.279 7.06382 102.488 6.84648 102.722 6.65678C102.867 6.59231 103.025 6.56073 103.184 6.56431C103.494 6.54987 103.802 6.62191 104.074 6.77237C104.316 6.93301 104.499 7.16847 104.594 7.44276C104.546 7.6179 104.459 7.7799 104.34 7.91663C104.201 8.09579 104.045 8.28072 103.866 8.49455L103.288 9.07246C103.11 9.26601 102.944 9.47061 102.791 9.68505C102.535 9.96565 102.303 10.2672 102.098 10.5866C101.87 10.9371 101.661 11.2998 101.473 11.6731C101.3 12.015 101.146 12.3661 101.011 12.7249C100.907 12.9789 100.844 13.2483 100.826 13.5224C100.826 13.6496 100.826 13.8229 100.826 14.0425C100.826 14.2621 100.826 14.4413 100.826 14.5627C100.825 14.7562 100.81 14.9494 100.78 15.1406C100.75 15.3273 100.687 15.5073 100.595 15.6723C100.506 15.832 100.379 15.9671 100.225 16.0652C100.051 16.1701 99.8504 16.2223 99.6472 16.2155C99.5178 16.2218 99.3884 16.2014 99.2671 16.1557C99.1459 16.1099 99.0353 16.0398 98.9422 15.9497C98.8541 15.8646 98.785 15.762 98.7392 15.6485C98.6934 15.535 98.672 15.4132 98.6763 15.2908L98.6417 15.1868Z" fill="#E85224"/>
<path id="Vector_11" d="M21.281 26.8423H20.7031V22.7969H23.558V23.2997H21.281V26.8423ZM21.2233 24.7098H23.3095V25.2068H21.2233V24.7098Z" fill="#2C255E"/>
<path id="Vector_12" d="M24.5 26.8425V23.7795H25.0317V24.6117L24.9797 24.4037C25.0591 24.1957 25.211 24.0233 25.4073 23.9182C25.6358 23.8008 25.8903 23.7431 26.1471 23.7507V24.2881H26.0199C25.8904 24.2812 25.7608 24.3012 25.6395 24.347C25.5181 24.3927 25.4076 24.4632 25.3149 24.5539C25.2231 24.6586 25.1528 24.7804 25.1082 24.9123C25.0636 25.0442 25.0454 25.1837 25.0548 25.3226V26.8483L24.5 26.8425Z" fill="#2C255E"/>
<path id="Vector_13" d="M28.4115 26.878C28.1251 26.8826 27.8424 26.8129 27.5909 26.6758C27.3474 26.5417 27.147 26.3413 27.013 26.0979C26.8764 25.8511 26.8047 25.5737 26.8047 25.2917C26.8047 25.0096 26.8764 24.7322 27.013 24.4855C27.1497 24.244 27.3495 24.0443 27.5909 23.9076C27.8441 23.7755 28.126 23.708 28.4115 23.7111C28.6953 23.7075 28.9754 23.775 29.2264 23.9076C29.4704 24.0408 29.671 24.2414 29.8043 24.4855C29.9409 24.7333 30.0125 25.0116 30.0125 25.2946C30.0125 25.5775 29.9409 25.8558 29.8043 26.1036C29.6726 26.3489 29.4716 26.5499 29.2264 26.6815C28.9764 26.8167 28.6956 26.8844 28.4115 26.878ZM28.4115 26.3926C28.5954 26.3945 28.7765 26.3487 28.9374 26.2597C29.096 26.1723 29.2248 26.0395 29.3073 25.8783C29.3996 25.6999 29.4454 25.5011 29.4402 25.3003C29.4469 25.0994 29.4011 24.9002 29.3073 24.7224C29.2231 24.564 29.0945 24.4335 28.9374 24.3468C28.7758 24.2598 28.5951 24.2142 28.4115 24.2142C28.228 24.2142 28.0473 24.2598 27.8856 24.3468C27.7299 24.4352 27.6018 24.5653 27.5158 24.7224C27.4173 24.8987 27.3693 25.0986 27.3771 25.3003C27.3721 25.5018 27.4199 25.701 27.5158 25.8783C27.5999 26.0383 27.7283 26.1707 27.8856 26.2597C28.0465 26.3487 28.2277 26.3945 28.4115 26.3926Z" fill="#2C255E"/>
<path id="Vector_14" d="M34.8503 23.7511C35.0765 23.7455 35.3007 23.7951 35.5034 23.8956C35.6925 23.992 35.8462 24.1457 35.9426 24.3348C36.0593 24.5654 36.115 24.822 36.1044 25.0803V26.8429H35.5265V25.1438C35.5443 24.9021 35.47 24.6626 35.3184 24.4735C35.2435 24.3972 35.1532 24.3377 35.0536 24.2989C34.954 24.26 34.8473 24.2427 34.7405 24.2481C34.5716 24.2452 34.4046 24.285 34.2551 24.3637C34.1159 24.4411 34.0047 24.5604 33.9372 24.7046C33.8529 24.8852 33.8132 25.0834 33.8216 25.2826V26.8603H33.2437V25.1612C33.2615 24.9195 33.1872 24.68 33.0357 24.4908C32.9614 24.4137 32.8713 24.3535 32.7715 24.3146C32.6717 24.2757 32.5647 24.2589 32.4578 24.2654C32.2907 24.2633 32.1258 24.303 31.9781 24.381C31.8372 24.4581 31.7241 24.5773 31.6544 24.722C31.5701 24.9026 31.5305 25.1008 31.5389 25.2999V26.8776H30.9609V23.8146H31.4926V24.6295L31.4059 24.4215C31.4998 24.2215 31.656 24.0572 31.8509 23.9533C32.0661 23.8392 32.3067 23.7815 32.5502 23.7858C32.8191 23.7796 33.0834 23.8563 33.3073 24.0054C33.4166 24.0811 33.5097 24.1778 33.5811 24.29C33.6526 24.4021 33.7009 24.5273 33.7234 24.6584L33.498 24.5659C33.5906 24.3244 33.7615 24.1209 33.9835 23.988C34.2413 23.8221 34.5439 23.7394 34.8503 23.7511Z" fill="#2C255E"/>
<path id="Vector_15" d="M39.3047 26.8431V22.7977H41.0095C41.4097 22.7874 41.8064 22.8747 42.1654 23.052C42.4853 23.2091 42.7524 23.4561 42.934 23.7628C43.1158 24.0857 43.2113 24.4499 43.2113 24.8204C43.2113 25.1909 43.1158 25.5551 42.934 25.878C42.7524 26.1847 42.4853 26.4317 42.1654 26.5888C41.8064 26.7661 41.4097 26.8533 41.0095 26.8431H39.3047ZM39.8826 26.3403H40.9749C41.275 26.3483 41.5726 26.2828 41.8417 26.1496C42.0835 26.0319 42.2847 25.8448 42.4197 25.6121C42.5522 25.3683 42.6216 25.0951 42.6216 24.8175C42.6216 24.5399 42.5522 24.2668 42.4197 24.0229C42.2828 23.7933 42.082 23.6085 41.8417 23.4912C41.5726 23.358 41.275 23.2925 40.9749 23.3005H39.8826V26.3403Z" fill="#2C255E"/>
<path id="Vector_16" d="M44.5476 23.1919C44.4469 23.1944 44.3493 23.157 44.276 23.0878C44.2423 23.0548 44.2157 23.0152 44.1978 22.9714C44.1799 22.9277 44.1711 22.8808 44.172 22.8335C44.1707 22.7854 44.1792 22.7375 44.1971 22.6928C44.215 22.648 44.2418 22.6074 44.276 22.5735C44.3504 22.5061 44.4472 22.4688 44.5476 22.4688C44.648 22.4688 44.7449 22.5061 44.8193 22.5735C44.8531 22.6052 44.8799 22.6438 44.8978 22.6866C44.9158 22.7294 44.9244 22.7756 44.9233 22.822C44.9241 22.8713 44.9149 22.9202 44.8962 22.9658C44.8776 23.0115 44.8498 23.0528 44.8147 23.0874C44.7796 23.122 44.7378 23.1491 44.6919 23.167C44.646 23.185 44.5969 23.1934 44.5476 23.1919ZM44.2702 26.8443V23.7813H44.8482V26.8443H44.2702Z" fill="#2C255E"/>
<path id="Vector_17" d="M47.4835 26.8764C47.1916 26.8806 46.9033 26.8111 46.6455 26.6742C46.402 26.5401 46.2016 26.3397 46.0676 26.0962C45.931 25.8484 45.8594 25.5701 45.8594 25.2871C45.8594 25.0042 45.931 24.7259 46.0676 24.4781C46.2034 24.2359 46.4034 24.0359 46.6455 23.9002C46.905 23.7682 47.1924 23.7008 47.4835 23.7037C47.7402 23.6969 47.9945 23.7545 48.2232 23.8713C48.4391 23.9763 48.6168 24.146 48.7318 24.3567L48.3099 24.6283C48.2179 24.4863 48.0904 24.3707 47.94 24.2931C47.796 24.2234 47.6378 24.1878 47.4777 24.1891C47.2901 24.1865 47.105 24.2323 46.9403 24.322C46.7827 24.4101 46.6527 24.5402 46.5646 24.6977C46.4661 24.8739 46.4181 25.0739 46.4259 25.2756C46.421 25.477 46.4688 25.6763 46.5646 25.8535C46.6527 26.011 46.7827 26.141 46.9403 26.2292C47.105 26.3189 47.2901 26.3647 47.4777 26.3621C47.6385 26.3641 47.7973 26.3264 47.94 26.2523C48.0913 26.1786 48.2193 26.0646 48.3099 25.9229L48.7318 26.1887C48.6142 26.3989 48.4374 26.5697 48.2232 26.6799C47.9962 26.8043 47.7423 26.8717 47.4835 26.8764Z" fill="#2C255E"/>
<path id="Vector_18" d="M50.9895 26.878C50.703 26.8826 50.4203 26.8129 50.1688 26.6758C49.9254 26.5417 49.725 26.3413 49.5909 26.0979C49.4543 25.8511 49.3826 25.5737 49.3826 25.2917C49.3826 25.0096 49.4543 24.7322 49.5909 24.4855C49.7276 24.244 49.9274 24.0443 50.1688 23.9076C50.422 23.7755 50.7039 23.708 50.9895 23.7111C51.2732 23.7075 51.5534 23.775 51.8043 23.9076C52.0484 24.0408 52.249 24.2414 52.3822 24.4855C52.5188 24.7333 52.5905 25.0116 52.5905 25.2946C52.5905 25.5775 52.5188 25.8558 52.3822 26.1036C52.2506 26.3489 52.0496 26.5499 51.8043 26.6815C51.5544 26.8167 51.2735 26.8844 50.9895 26.878ZM50.9895 26.3926C51.1733 26.3945 51.3545 26.3487 51.5154 26.2597C51.6739 26.1723 51.8028 26.0395 51.8852 25.8783C51.9776 25.6999 52.0233 25.5011 52.0181 25.3003C52.0248 25.0994 51.979 24.9002 51.8852 24.7224C51.801 24.564 51.6725 24.4335 51.5154 24.3468C51.3537 24.2598 51.173 24.2142 50.9895 24.2142C50.8059 24.2142 50.6252 24.2598 50.4635 24.3468C50.3078 24.4352 50.1797 24.5653 50.0937 24.7224C49.9952 24.8987 49.9472 25.0986 49.955 25.3003C49.9501 25.5018 49.9979 25.701 50.0937 25.8783C50.1778 26.0383 50.3062 26.1707 50.4635 26.2597C50.6244 26.3487 50.8056 26.3945 50.9895 26.3926Z" fill="#2C255E"/>
<path id="Vector_19" d="M54.3408 26.8442L53 23.7812H53.5779L54.7684 26.5552H54.491L55.7046 23.7812H56.2479L54.9071 26.8442H54.3408Z" fill="#2C255E"/>
<path id="Vector_20" d="M58.3092 26.8763C58.0079 26.8821 57.7099 26.8126 57.4423 26.674C57.1981 26.541 56.9974 26.3404 56.8644 26.0961C56.7328 25.8467 56.6641 25.569 56.6641 25.287C56.6641 25.0051 56.7328 24.7273 56.8644 24.478C56.9913 24.2389 57.1812 24.0391 57.4134 23.9C57.6566 23.769 57.9289 23.7014 58.2052 23.7036C58.4801 23.697 58.7516 23.7649 58.9911 23.9C59.221 24.0367 59.4058 24.2376 59.5228 24.478C59.6595 24.7315 59.7272 25.0165 59.7193 25.3044C59.722 25.3313 59.722 25.3584 59.7193 25.3853C59.7222 25.4141 59.7222 25.4431 59.7193 25.472H57.1129V25.0732H59.4246L59.1992 25.2119C59.208 25.0288 59.166 24.8468 59.0778 24.686C58.9977 24.5348 58.8752 24.4103 58.7253 24.3277C58.5703 24.2347 58.3917 24.1885 58.211 24.1948C58.0305 24.1901 57.8523 24.2362 57.6966 24.3277C57.5452 24.411 57.4224 24.5378 57.3441 24.6918C57.2556 24.8547 57.2117 25.0381 57.2169 25.2235V25.368C57.2141 25.56 57.262 25.7493 57.3557 25.917C57.4528 26.074 57.5906 26.2018 57.7544 26.2868C57.9337 26.3765 58.1319 26.4221 58.3323 26.4198C58.5007 26.4232 58.668 26.3917 58.8236 26.3273C58.9733 26.2648 59.1075 26.1701 59.2165 26.0499L59.5228 26.4082C59.3813 26.571 59.203 26.6978 59.0027 26.7781C58.7806 26.8577 58.5446 26.8911 58.3092 26.8763Z" fill="#2C255E"/>
<path id="Vector_21" d="M60.7736 26.8425V23.7795H61.3052V24.6117L61.2532 24.4037C61.3327 24.1957 61.4845 24.0233 61.6809 23.9182C61.9093 23.8008 62.1638 23.7431 62.4206 23.7507V24.2881H62.2935C62.164 24.2812 62.0344 24.3012 61.913 24.347C61.7917 24.3927 61.6811 24.4632 61.5884 24.5539C61.4966 24.6586 61.4264 24.7804 61.3817 24.9123C61.3371 25.0442 61.319 25.1837 61.3284 25.3226V26.8483L60.7736 26.8425Z" fill="#2C255E"/>
<path id="Vector_22" d="M63.6141 28C63.4682 28.0009 63.3233 27.9755 63.1864 27.9249C63.0533 27.8825 62.931 27.8115 62.8281 27.7169L63.0651 27.3008C63.1384 27.3722 63.2247 27.4291 63.3193 27.4684C63.4125 27.5081 63.5129 27.5277 63.6141 27.5261C63.7344 27.5309 63.8528 27.4941 63.9493 27.4221C64.0609 27.3208 64.1461 27.1938 64.1978 27.0523L64.3885 26.6304L64.4463 26.561L65.6484 23.7812H66.1916L64.7063 27.1505C64.636 27.336 64.5343 27.508 64.4058 27.6591C64.3075 27.7731 64.1852 27.8639 64.0475 27.9249C63.9083 27.9742 63.7618 27.9996 63.6141 28ZM64.3423 26.9424L62.9437 23.7812H63.5216L64.7121 26.509L64.3423 26.9424Z" fill="#2C255E"/>
<path id="Vector_23" d="M68.375 24.2129V23.7563H70.3284V24.2129H68.375ZM69.866 26.854C69.736 26.8624 69.6056 26.8448 69.4826 26.8021C69.3595 26.7594 69.2462 26.6926 69.1494 26.6055C69.0614 26.5101 68.9935 26.3981 68.9498 26.2759C68.9062 26.1538 68.8875 26.0241 68.8951 25.8946V23.0859H69.473V25.8715C69.4629 26.0095 69.5063 26.1461 69.5944 26.2529C69.6418 26.2984 69.6981 26.3337 69.7597 26.3566C69.8214 26.3795 69.8871 26.3894 69.9527 26.3858C70.11 26.3925 70.2643 26.3411 70.3861 26.2414L70.5595 26.6401C70.4708 26.7163 70.3662 26.7716 70.2532 26.8019C70.1289 26.8472 69.9982 26.8725 69.866 26.8771V26.854Z" fill="#2C255E"/>
<path id="Vector_24" d="M72.685 26.878C72.3985 26.8826 72.1158 26.8129 71.8643 26.6758C71.6209 26.5417 71.4205 26.3413 71.2864 26.0979C71.1498 25.8511 71.0781 25.5737 71.0781 25.2917C71.0781 25.0096 71.1498 24.7322 71.2864 24.4855C71.4231 24.244 71.6229 24.0443 71.8643 23.9076C72.1175 23.7755 72.3994 23.708 72.685 23.7111C72.9687 23.7075 73.2489 23.775 73.4998 23.9076C73.7439 24.0408 73.9445 24.2414 74.0778 24.4855C74.2143 24.7333 74.286 25.0116 74.286 25.2946C74.286 25.5775 74.2143 25.8558 74.0778 26.1036C73.9461 26.3489 73.7451 26.5499 73.4998 26.6815C73.2499 26.8167 72.969 26.8844 72.685 26.878ZM72.685 26.3926C72.8688 26.3945 73.05 26.3487 73.2109 26.2597C73.3695 26.1723 73.4983 26.0395 73.5807 25.8783C73.6731 25.6999 73.7188 25.5011 73.7137 25.3003C73.7204 25.0994 73.6745 24.9002 73.5807 24.7224C73.4965 24.564 73.368 24.4335 73.2109 24.3468C73.0492 24.2598 72.8685 24.2142 72.685 24.2142C72.5014 24.2142 72.3207 24.2598 72.1591 24.3468C72.0033 24.4352 71.8752 24.5653 71.7892 24.7224C71.6907 24.8987 71.6427 25.0986 71.6505 25.3003C71.6456 25.5018 71.6934 25.701 71.7892 25.8783C71.8733 26.0383 72.0017 26.1707 72.1591 26.2597C72.3199 26.3487 72.5011 26.3945 72.685 26.3926Z" fill="#2C255E"/>
<path id="Vector_25" d="M77.2188 26.8429V22.7975H78.7964C79.1072 22.7901 79.4162 22.8471 79.7038 22.9651C79.9405 23.0656 80.1418 23.2347 80.2817 23.4506C80.4199 23.6785 80.49 23.9412 80.484 24.2076C80.4909 24.4724 80.4206 24.7335 80.2817 24.9589C80.1418 25.1748 79.9405 25.3439 79.7038 25.4444C79.4162 25.5624 79.1072 25.6195 78.7964 25.612H77.5308L77.7909 25.3461V26.8429H77.2188ZM77.7967 25.4039L77.5366 25.1208H78.7791C79.0774 25.1409 79.3735 25.0572 79.6171 24.8838C79.7135 24.8005 79.7896 24.6963 79.8397 24.5791C79.8898 24.462 79.9124 24.3349 79.906 24.2076C79.9129 24.0812 79.8903 23.9549 79.8402 23.8386C79.7901 23.7223 79.7137 23.6191 79.6171 23.5373C79.3735 23.3639 79.0774 23.2802 78.7791 23.3003H77.5308L77.7909 23.0114L77.7967 25.4039ZM79.9234 26.8429L78.8947 25.3693H79.5131L80.5533 26.8372L79.9234 26.8429Z" fill="#2C255E"/>
<path id="Vector_26" d="M82.9733 26.8763C82.672 26.8821 82.374 26.8126 82.1064 26.674C81.8621 26.541 81.6615 26.3404 81.5285 26.0961C81.3969 25.8467 81.3281 25.569 81.3281 25.287C81.3281 25.0051 81.3969 24.7273 81.5285 24.478C81.6633 24.2351 81.8635 24.0348 82.1064 23.9C82.3496 23.769 82.6219 23.7014 82.8981 23.7036C83.173 23.697 83.4446 23.7649 83.6841 23.9C83.914 24.0367 84.0988 24.2376 84.2158 24.478C84.3524 24.7315 84.4202 25.0165 84.4123 25.3044C84.4149 25.3313 84.4149 25.3584 84.4123 25.3853C84.4151 25.4141 84.4151 25.4431 84.4123 25.472H81.8059V25.0732H84.1176L83.8922 25.2119C83.901 25.0288 83.859 24.8468 83.7708 24.686C83.6907 24.5348 83.5682 24.4103 83.4183 24.3277C83.2633 24.2347 83.0846 24.1885 82.9039 24.1948C82.7233 24.1892 82.5448 24.2353 82.3896 24.3277C82.2382 24.411 82.1154 24.5378 82.037 24.6918C81.9485 24.8547 81.9047 25.0381 81.9099 25.2235V25.368C81.9071 25.56 81.9549 25.7493 82.0486 25.917C82.1443 26.0751 82.2825 26.2033 82.4474 26.2868C82.6267 26.3765 82.8248 26.4221 83.0253 26.4198C83.1937 26.4232 83.3609 26.3917 83.5165 26.3273C83.6663 26.2648 83.8005 26.1701 83.9095 26.0499L84.2158 26.4082C84.0743 26.571 83.896 26.6978 83.6957 26.7781C83.4645 26.8616 83.2183 26.8951 82.9733 26.8763Z" fill="#2C255E"/>
<path id="Vector_27" d="M86.7804 26.8764C86.4885 26.8806 86.2002 26.8111 85.9424 26.6742C85.6989 26.5401 85.4985 26.3397 85.3645 26.0962C85.2279 25.8484 85.1562 25.5701 85.1562 25.2871C85.1562 25.0042 85.2279 24.7259 85.3645 24.4781C85.5003 24.2359 85.7002 24.0359 85.9424 23.9002C86.2018 23.7682 86.4893 23.7008 86.7804 23.7037C87.0371 23.6969 87.2914 23.7545 87.5201 23.8713C87.7359 23.9763 87.9136 24.146 88.0286 24.3567L87.6068 24.6283C87.5148 24.4863 87.3873 24.3707 87.2369 24.2931C87.0926 24.2241 86.9346 24.1886 86.7746 24.1891C86.587 24.1865 86.4019 24.2323 86.2371 24.322C86.0796 24.4101 85.9496 24.5402 85.8615 24.6977C85.763 24.8739 85.715 25.0739 85.7228 25.2756C85.7178 25.477 85.7656 25.6763 85.8615 25.8535C85.9496 26.011 86.0796 26.141 86.2371 26.2292C86.4019 26.3189 86.587 26.3647 86.7746 26.3621C86.9353 26.3636 87.094 26.3259 87.2369 26.2523C87.3882 26.1786 87.5162 26.0646 87.6068 25.9229L88.0286 26.1887C87.9111 26.3989 87.7342 26.5697 87.5201 26.6799C87.2931 26.8043 87.0392 26.8717 86.7804 26.8764Z" fill="#2C255E"/>
<path id="Vector_28" d="M90.2473 26.878C89.9609 26.8826 89.6781 26.8129 89.4266 26.6758C89.1832 26.5417 88.9828 26.3413 88.8487 26.0979C88.7121 25.8511 88.6404 25.5737 88.6404 25.2917C88.6404 25.0096 88.7121 24.7322 88.8487 24.4855C88.9855 24.244 89.1852 24.0443 89.4266 23.9076C89.6798 23.7755 89.9617 23.708 90.2473 23.7111C90.531 23.7075 90.8112 23.775 91.0621 23.9076C91.3062 24.0408 91.5068 24.2414 91.64 24.4855C91.7766 24.7333 91.8483 25.0116 91.8483 25.2946C91.8483 25.5775 91.7766 25.8558 91.64 26.1036C91.5084 26.3489 91.3074 26.5499 91.0621 26.6815C90.8122 26.8167 90.5314 26.8844 90.2473 26.878ZM90.2473 26.3926C90.4311 26.3945 90.6123 26.3487 90.7732 26.2597C90.9317 26.1723 91.0606 26.0395 91.143 25.8783C91.2354 25.6999 91.2811 25.5011 91.276 25.3003C91.2827 25.0994 91.2368 24.9002 91.143 24.7224C91.0588 24.564 90.9303 24.4335 90.7732 24.3468C90.6115 24.2598 90.4308 24.2142 90.2473 24.2142C90.0637 24.2142 89.883 24.2598 89.7214 24.3468C89.5656 24.4352 89.4376 24.5653 89.3515 24.7224C89.253 24.8987 89.205 25.0986 89.2128 25.3003C89.2079 25.5018 89.2557 25.701 89.3515 25.8783C89.4357 26.0383 89.5641 26.1707 89.7214 26.2597C89.8823 26.3487 90.0634 26.3945 90.2473 26.3926Z" fill="#2C255E"/>
<path id="Vector_29" d="M93.6064 26.8442L92.2656 23.7812H92.8435L94.034 26.5552H93.7567L94.9703 23.7812H95.5135L94.1727 26.8442H93.6064Z" fill="#2C255E"/>
<path id="Vector_30" d="M97.5826 26.8763C97.2813 26.8821 96.9834 26.8126 96.7158 26.674C96.4715 26.541 96.2709 26.3404 96.1379 26.0961C96.0063 25.8467 95.9375 25.569 95.9375 25.287C95.9375 25.0051 96.0063 24.7273 96.1379 24.478C96.2727 24.2351 96.4729 24.0348 96.7158 23.9C96.9589 23.769 97.2313 23.7014 97.5075 23.7036C97.7824 23.697 98.054 23.7649 98.2935 23.9C98.5233 24.0367 98.7082 24.2376 98.8252 24.478C98.9618 24.7315 99.0295 25.0165 99.0216 25.3044C99.0243 25.3313 99.0243 25.3584 99.0216 25.3853C99.0216 25.4142 99.0216 25.4431 99.0216 25.472H96.4152V25.0732H98.7269L98.5015 25.2119C98.5075 25.0291 98.4657 24.8478 98.3802 24.686C98.3001 24.5348 98.1775 24.4103 98.0276 24.3277C97.8726 24.2347 97.694 24.1885 97.5133 24.1948C97.3327 24.1892 97.1542 24.2353 96.9989 24.3277C96.8462 24.4092 96.7229 24.5365 96.6464 24.6918C96.5579 24.8547 96.514 25.0381 96.5193 25.2235V25.368C96.5164 25.56 96.5643 25.7493 96.658 25.917C96.7537 26.0751 96.8919 26.2033 97.0568 26.2868C97.2361 26.3765 97.4342 26.4221 97.6347 26.4198C97.803 26.4232 97.9703 26.3917 98.1259 26.3273C98.2757 26.2648 98.4099 26.1701 98.5189 26.0499L98.8252 26.4082C98.6836 26.571 98.5053 26.6978 98.305 26.7781C98.0739 26.8616 97.8277 26.8951 97.5826 26.8763Z" fill="#2C255E"/>
<path id="Vector_31" d="M100.023 26.8426V23.7796H100.555V24.6118L100.503 24.4038C100.581 24.1946 100.733 24.0217 100.931 23.9183C101.159 23.8004 101.414 23.7427 101.671 23.7507V24.2882H101.543C101.414 24.2809 101.284 24.3008 101.163 24.3466C101.041 24.3923 100.931 24.463 100.838 24.554C100.747 24.6587 100.676 24.7805 100.632 24.9124C100.587 25.0443 100.569 25.1837 100.578 25.3227V26.8484L100.023 26.8426Z" fill="#2C255E"/>
<path id="Vector_32" d="M102.888 28C102.742 28.0009 102.597 27.9755 102.46 27.9249C102.327 27.8825 102.204 27.8115 102.102 27.7169L102.338 27.3008C102.412 27.3722 102.498 27.4291 102.593 27.4684C102.686 27.5081 102.786 27.5277 102.888 27.5261C103.008 27.5309 103.126 27.4941 103.223 27.4221C103.334 27.3208 103.42 27.1938 103.471 27.0523L103.662 26.6304L103.72 26.561L104.922 23.7812H105.465L103.98 27.1505C103.909 27.336 103.808 27.508 103.679 27.6591C103.582 27.7744 103.46 27.8655 103.321 27.9249C103.182 27.9742 103.035 27.9996 102.888 28ZM103.616 26.9424L102.217 23.7812H102.795L103.986 26.509L103.616 26.9424Z" fill="#2C255E"/>
<path id="Vector_33" d="M3.28147 23.4268C3.28147 23.2939 3.22368 23.1552 3.20634 23.0165C3.15619 22.5713 3.12917 22.1238 3.12542 21.6757C3.09075 20.8724 3.06186 20.0634 3.0214 19.2543C2.94627 19.2196 2.87693 19.1791 2.80758 19.1387C2.73291 19.0979 2.66143 19.0516 2.59375 19V19.3756C2.59375 19.7051 2.59375 20.0287 2.59375 20.3581C2.59375 20.6875 2.59375 20.9996 2.59375 21.3232C2.59375 21.6468 2.62841 21.9589 2.64574 22.2826C2.64574 22.4444 2.64575 22.6062 2.69199 22.7622C2.7073 22.8821 2.73441 23.0002 2.7729 23.1148C2.78808 23.169 2.8094 23.2214 2.83646 23.2708L2.92317 23.421V23.3921C3.02572 23.5335 3.1688 23.6403 3.33346 23.6984H3.36235C3.36235 23.6984 3.36235 23.6696 3.36235 23.658C3.36235 23.6464 3.29303 23.5077 3.28147 23.4268Z" fill="#E95B24"/>
<path id="Vector_34" d="M3.33044 5.35592C3.63698 6.04615 4.09998 6.65556 4.68278 7.13591C5.13551 7.52022 5.67185 7.79333 6.24894 7.93343C6.62843 8.02789 7.02528 8.02789 7.40477 7.93343C7.72353 7.86161 8.01847 7.70909 8.26135 7.49051C8.50422 7.27192 8.68686 6.9946 8.79175 6.68513C8.88714 6.28231 8.88714 5.86278 8.79175 5.45996C8.67595 4.84232 8.44035 4.25332 8.09824 3.72621C7.75845 3.1885 7.3306 2.71181 6.83261 2.31609C6.40887 1.99505 5.9368 1.7434 5.43406 1.57058L5.13932 1.49545C4.80077 1.41818 4.44919 1.41818 4.11065 1.49545C3.76093 1.58326 3.45128 1.78697 3.2322 2.07336C3.04359 2.33508 2.9279 2.64223 2.897 2.96336C2.897 2.96336 2.897 3.01537 2.897 3.03849C2.85753 3.50852 2.90057 3.98183 3.02416 4.43703C3.09356 4.75328 3.19621 5.06129 3.33044 5.35592Z" fill="#E95B24"/>
<path id="Vector_35" d="M5.09484 18.5859C5.38046 18.5038 5.65582 18.3894 5.9155 18.2449C6.39281 17.9821 6.7917 17.5972 7.07133 17.1295C7.36143 16.6368 7.47363 16.0595 7.38918 15.494C7.37233 15.392 7.3472 15.2915 7.31405 15.1935C7.29046 15.0989 7.23792 15.0141 7.16379 14.9508C7.1491 14.9342 7.13148 14.9205 7.11179 14.9103C6.98435 14.8672 6.84622 14.8672 6.71878 14.9103C6.58769 14.9473 6.46008 14.9957 6.33737 15.0548C6.09465 15.1704 5.86926 15.3207 5.61498 15.4247C5.42049 15.5025 5.21166 15.538 5.00239 15.5287C4.74492 15.5028 4.4954 15.4249 4.26892 15.2997C4.04243 15.1745 3.84368 15.0047 3.68472 14.8005C3.48823 14.5694 3.32067 14.3267 3.14152 14.0897C2.96236 13.8528 2.76587 13.61 2.5636 13.3789C2.36133 13.1477 2.13592 12.9107 1.92209 12.6854L1.59846 12.3271L1.44244 12.1479C1.44244 12.1479 1.28641 11.9919 1.29797 11.9688C1.26907 12.0497 1.24595 12.1363 1.22283 12.2172C0.901331 13.4657 0.969884 14.7827 1.41931 15.991C1.62404 16.5448 1.91675 17.062 2.28618 17.5225C2.64005 17.9797 3.10583 18.338 3.63852 18.5628C3.77601 18.618 3.91955 18.6568 4.06617 18.6784C4.41181 18.7158 4.76143 18.6844 5.09484 18.5859Z" fill="#E95B24"/>
<path id="Vector_36" d="M12.7013 7.80714C12.6844 7.83226 12.6708 7.85944 12.6608 7.88804C12.6393 7.95983 12.6239 8.03329 12.6146 8.10765C12.5741 8.4544 12.6435 8.80693 12.6146 9.15946C12.598 9.49837 12.5258 9.83224 12.4008 10.1477C12.2484 10.5605 12.0382 10.9497 11.7766 11.3035L11.6899 11.4249C11.4877 11.6907 11.2623 11.945 11.0369 12.1935L10.3723 12.9217C10.1718 13.1569 10.0028 13.4172 9.8695 13.6961C9.75294 13.9571 9.72064 14.248 9.77705 14.5283C9.79843 14.6261 9.84643 14.7161 9.91574 14.7883C9.98605 14.8598 10.0814 14.9013 10.1816 14.9039C10.3885 14.9108 10.5957 14.8973 10.8 14.8635H10.852C11.0196 14.8346 11.1814 14.7941 11.349 14.7479C11.51 14.6988 11.6682 14.6409 11.8229 14.5745L11.8922 14.5398C12.2023 14.4021 12.4968 14.2317 12.7706 14.0313L12.8516 13.9735L12.9093 13.9273C13.0938 13.7756 13.2676 13.6115 13.4295 13.436C13.651 13.1987 13.8449 12.9369 14.0074 12.6558C14.0883 12.5114 14.1634 12.3611 14.2328 12.2108C14.2328 12.2108 14.2328 12.1646 14.2617 12.1473C14.2726 12.1117 14.2862 12.0769 14.3021 12.0432V11.997C14.4166 11.674 14.5017 11.3413 14.5564 11.003C14.5564 10.8181 14.5853 10.6274 14.5853 10.4251C14.6023 10.087 14.5512 9.749 14.435 9.43108C14.3185 9.14574 14.141 8.88932 13.9149 8.67978L13.6433 8.42551C13.4873 8.28511 13.3233 8.15388 13.1521 8.03252C13.0538 7.95739 12.9498 7.88225 12.84 7.8129C12.8224 7.79377 12.7979 7.78242 12.7718 7.78134C12.7458 7.78025 12.7205 7.78953 12.7013 7.80714Z" fill="#E95B24"/>
<path id="Vector_37" d="M16.405 13.2681C16.2477 13.0008 16.076 12.7423 15.8907 12.4937C15.7982 12.3723 15.7 12.2567 15.6017 12.1469L15.567 12.1122L15.4341 11.9736C15.3867 11.9281 15.3365 11.8856 15.2838 11.8464V11.9331C15.2838 11.9331 15.2838 11.9909 15.2838 12.0198L15.1798 12.3145C15.1393 12.4128 15.1047 12.511 15.0585 12.6035C15.0122 12.6959 14.9718 12.7942 14.9255 12.8867L14.7695 13.1641C14.7175 13.2507 14.6597 13.3374 14.6019 13.4241C14.5441 13.5108 14.4863 13.5975 14.4227 13.6784C14.3592 13.7593 14.2898 13.846 14.2263 13.9211C14.1627 13.9963 14.0876 14.0772 14.0124 14.1523L13.7928 14.3719C13.7119 14.447 13.6368 14.5164 13.5559 14.58C13.475 14.6435 13.3883 14.7129 13.3074 14.7707L13.0473 14.9498C12.9606 15.0076 12.8682 15.0596 12.7757 15.1116C12.1059 15.4888 11.3629 15.7174 10.5969 15.782C10.3847 15.8134 10.1682 15.8003 9.96132 15.7436C9.75439 15.6869 9.56149 15.5878 9.39487 15.4526C9.23899 15.2969 9.11657 15.111 9.03508 14.9063C8.95359 14.7015 8.91478 14.4823 8.92101 14.2621C8.99906 13.4093 9.39516 12.617 10.0306 12.0429C10.2791 11.7771 10.5334 11.5112 10.7703 11.2338L10.9552 11.0084L11.0073 10.9391C11.0283 10.9155 11.0476 10.8904 11.065 10.864C11.1757 10.7177 11.278 10.5653 11.3714 10.4074L11.5274 10.1242C11.6605 9.86352 11.7484 9.58214 11.7874 9.29204C11.8105 9.01512 11.8105 8.73676 11.7874 8.45984C11.7719 8.25092 11.7856 8.04085 11.8279 7.83568C11.889 7.38627 12.0532 6.95707 12.3076 6.58161C12.3712 6.48337 12.4405 6.39089 12.5098 6.29842C12.6995 6.05972 12.8641 5.80216 13.0011 5.5298C13.1269 5.25636 13.2275 4.972 13.3016 4.68027C13.3016 4.59358 13.3016 4.51268 13.3478 4.43177C13.426 4.02762 13.4148 3.61125 13.315 3.2119C13.2151 2.81255 13.0291 2.4399 12.7699 2.12011C12.5024 1.78879 12.1822 1.50372 11.8221 1.27634C11.4758 1.07052 11.0853 0.950537 10.6831 0.926409C10.281 0.902281 9.8789 0.974708 9.51046 1.13764C9.2346 1.25773 8.97134 1.40486 8.7245 1.57686C8.5858 1.68089 8.44709 1.7907 8.31995 1.90628L8.03678 2.16055C9.06511 3.13668 9.70382 4.45313 9.83409 5.86499C9.87292 6.36483 9.78963 6.86662 9.59137 7.32711C9.41524 7.70686 9.14708 8.03662 8.8112 8.28645C8.4585 8.54968 8.05505 8.73695 7.62634 8.83641C7.19763 8.93588 6.75296 8.94539 6.32039 8.86437C6.16578 8.84135 6.01313 8.80658 5.86381 8.76035C5.57277 8.6729 5.29185 8.55474 5.02583 8.40783C4.77609 8.27214 4.53831 8.11553 4.315 7.9397C4.19364 7.84723 4.07807 7.74899 3.96827 7.65074C3.85846 7.5525 3.76019 7.43115 3.65039 7.33868C3.50341 7.22736 3.33027 7.1557 3.1476 7.13062C2.86174 7.08612 2.56957 7.10587 2.2923 7.18842C2.0219 7.26429 1.77138 7.39842 1.55834 7.5814C1.3578 7.75432 1.19795 7.96943 1.09022 8.21132C0.983518 8.48707 0.942005 8.78375 0.968885 9.07819C0.968885 9.12443 0.968885 9.16488 0.968885 9.20534C0.968885 9.24579 0.997785 9.34983 1.00934 9.41918C1.0209 9.48853 1.07291 9.66767 1.11336 9.78904L1.20003 10.0086V10.0433L1.24049 10.1242C1.29828 10.2514 1.36186 10.3727 1.43121 10.4999C1.64254 10.8744 1.88826 11.2284 2.16517 11.5575C2.65062 12.1354 3.21695 12.6786 3.69084 13.2912C3.92201 13.5859 4.13583 13.8691 4.37278 14.1812C4.45005 14.3079 4.55339 14.4167 4.67595 14.5004C4.79851 14.5841 4.9375 14.6408 5.08364 14.6666C5.2294 14.6722 5.3737 14.6361 5.49972 14.5626C6.07764 14.2448 6.77114 13.8287 7.45886 14.1003C8.3373 14.447 8.45289 15.5797 8.33731 16.4119C8.21236 17.1852 7.83668 17.8959 7.26814 18.4346C6.69917 18.9668 6.00245 19.343 5.24544 19.5269C4.85447 19.6239 4.44918 19.6493 4.04915 19.602V19.7061C4.04915 20.4574 4.0954 21.2029 4.13585 21.9484C4.14537 22.4005 4.17815 22.8519 4.23409 23.3007C4.27356 23.6964 4.42378 24.073 4.66752 24.3872C4.82222 24.5583 4.9991 24.7079 5.19345 24.8322C5.35204 24.9317 5.51602 25.0224 5.68466 25.1038C5.96659 25.2362 6.25605 25.352 6.55153 25.4505C6.84627 25.5488 7.12945 25.6355 7.45886 25.7048C7.76704 25.7793 8.07979 25.8334 8.39508 25.8666C8.70716 25.9071 9.02502 25.9302 9.34287 25.9475L10.3138 25.9822C10.6273 25.9985 10.9416 25.9772 11.25 25.9187C11.3575 25.8954 11.4621 25.8605 11.562 25.8146C11.8157 25.6946 12.0199 25.4904 12.14 25.2367C12.2587 24.9754 12.3329 24.6961 12.3596 24.4103C12.3827 24.0948 12.3827 23.778 12.3596 23.4625C12.3249 22.8268 12.2267 22.2027 12.1573 21.5785C11.9824 20.4848 12.1 19.3642 12.4983 18.3306C12.6875 17.8859 12.9761 17.4905 13.342 17.1748C13.7347 16.8676 14.1846 16.6417 14.6655 16.5102H14.7117C15.018 16.4177 15.3301 16.3484 15.6364 16.2617C15.9232 16.1913 16.1979 16.0783 16.4512 15.9265C16.6443 15.8097 16.799 15.6389 16.8962 15.4353C16.9508 15.3246 16.986 15.2053 17.0003 15.0827V14.9729C17.0184 14.6679 16.9711 14.3625 16.8616 14.0772C16.7392 13.7917 16.5861 13.5204 16.405 13.2681Z" fill="#FAC312"/>
<path id="Vector_38" d="M16.9712 12.4926C16.6558 11.9831 16.2662 11.5234 15.8153 11.1287C15.6954 11.0275 15.57 10.9329 15.4397 10.8455C15.4397 10.6837 15.4397 10.5161 15.4397 10.3485C15.4468 9.92515 15.3763 9.50403 15.2316 9.10604C14.8654 8.355 14.2996 7.71922 13.5961 7.26827C13.4343 7.15269 13.2667 7.03709 13.0933 6.93307H13.0471L13.313 6.57476C13.6565 6.09092 13.9038 5.54546 14.0411 4.96816C14.1989 4.36387 14.2187 3.73179 14.0989 3.11882C13.9586 2.53084 13.6814 1.98432 13.2899 1.52379C12.925 1.05786 12.4662 0.673893 11.9433 0.396847C11.3919 0.111056 10.7703 -0.011245 10.1517 0.0443269C9.55851 0.116261 8.9873 0.313236 8.47581 0.622242C8.02631 0.89285 7.61273 1.21905 7.24485 1.59314H7.21596C6.66374 1.17371 6.02984 0.874478 5.35505 0.714693C4.84025 0.576055 4.29795 0.576055 3.78314 0.714693C3.58315 0.771924 3.38951 0.849394 3.20523 0.945873C2.91005 1.12248 2.65487 1.35858 2.45588 1.63915C2.2569 1.91972 2.11846 2.23861 2.0494 2.57558C1.87214 3.44732 1.93809 4.35103 2.24008 5.18777L2.27479 5.28601C2.39008 5.61168 2.53316 5.92685 2.70244 6.22801C2.13863 6.2267 1.58727 6.39373 1.11896 6.70769C0.709902 6.9675 0.383185 7.3383 0.176955 7.77682C-0.0682879 8.34498 -0.12699 8.97631 0.0093369 9.57993C0.124199 10.1263 0.33346 10.6485 0.627711 11.123C0.0494135 12.5238 -0.06601 14.0729 0.298295 15.544C0.475579 16.2727 0.774526 16.9663 1.18252 17.5956C1.33668 17.8373 1.50861 18.0672 1.69688 18.2833C1.69084 18.3197 1.69084 18.3568 1.69688 18.3931C1.62756 19.3682 1.61018 20.3463 1.64485 21.3232C1.64485 21.8086 1.67951 22.2941 1.7373 22.7795C1.75642 23.0158 1.80496 23.2487 1.88178 23.473C1.96599 23.7031 2.09351 23.915 2.25744 24.0972C2.46949 24.3406 2.74909 24.5156 3.06075 24.5999C3.26217 24.6731 3.47728 24.7007 3.69065 24.6808C3.92258 25.0169 4.21687 25.3053 4.55753 25.5304C4.98581 25.806 5.44566 26.0291 5.92719 26.195C6.46135 26.3951 7.01267 26.5459 7.57427 26.6458C8.24354 26.755 8.91919 26.8206 9.59697 26.8423C10.2067 26.9002 10.8216 26.871 11.4232 26.7556C11.7138 26.6855 11.986 26.5538 12.2214 26.3693C12.4567 26.1849 12.6496 25.952 12.787 25.6864C13.0394 25.144 13.1639 24.5508 13.1511 23.9527C13.1511 22.6755 12.8102 21.4214 12.868 20.1442C12.8879 19.6877 12.9796 19.2372 13.1396 18.8092C13.2949 18.3963 13.5536 18.0302 13.8909 17.7459L13.9776 17.6881L14.1105 17.6072L14.2492 17.5378L14.3359 17.4916C14.5488 17.4065 14.7669 17.3351 14.9889 17.2778C15.4318 17.1731 15.8679 17.0419 16.295 16.8848C16.5683 16.7957 16.821 16.6527 17.0381 16.4643C17.2552 16.2758 17.4323 16.0457 17.559 15.7876C17.6856 15.5295 17.7592 15.2487 17.7753 14.9616C17.7915 14.6746 17.7499 14.3872 17.6531 14.1166C17.5126 13.5427 17.2825 12.9947 16.9712 12.4926ZM13.1454 8.03689C13.3166 8.15825 13.4806 8.28946 13.6366 8.42987L13.9082 8.68415C14.1342 8.89369 14.3118 9.15012 14.4283 9.43545C14.5445 9.75337 14.5956 10.0914 14.5786 10.4295C14.5786 10.6144 14.5786 10.8051 14.5497 11.0074C14.495 11.3457 14.4099 11.6784 14.2954 12.0014V12.0476C14.2795 12.0813 14.2659 12.116 14.255 12.1516C14.255 12.1516 14.255 12.2094 14.2261 12.2152C14.1567 12.3655 14.0816 12.5157 14.0007 12.6602C13.8382 12.9413 13.6443 13.203 13.4228 13.4404C13.2609 13.6159 13.0871 13.78 12.9026 13.9316L12.8449 13.9779L12.7639 14.0357C12.4901 14.236 12.1956 14.4065 11.8855 14.5442L11.8161 14.5789C11.6615 14.6453 11.5033 14.7031 11.3422 14.7523C11.1747 14.7985 11.0128 14.839 10.8453 14.8679H10.7933C10.589 14.9016 10.3818 14.9152 10.1749 14.9083C10.0746 14.9057 9.97933 14.8642 9.90903 14.7927C9.83972 14.7205 9.79172 14.6305 9.77034 14.5327C9.71392 14.2524 9.74623 13.9615 9.86279 13.7005V13.6716C9.99605 13.3927 10.1651 13.1324 10.3656 12.8972L11.0302 12.169C11.2556 11.9205 11.481 11.6662 11.6832 11.4004L11.7699 11.279C12.0315 10.9251 12.2417 10.536 12.3941 10.1232C12.5191 9.80771 12.5913 9.47384 12.6079 9.13492C12.6079 8.7824 12.5559 8.42986 12.6079 8.08311C12.6172 8.00875 12.6326 7.93531 12.6541 7.86352C12.6641 7.83493 12.6777 7.80772 12.6946 7.7826C12.7127 7.76595 12.7364 7.75671 12.761 7.75671C12.7857 7.75671 12.8094 7.76595 12.8275 7.7826C12.9431 7.86929 13.0471 7.94442 13.1454 8.03689ZM2.9047 3.11306C2.9047 3.11306 2.9047 3.06104 2.9047 3.03792C2.9356 2.7168 3.05128 2.40965 3.2399 2.14793C3.45897 1.86154 3.76859 1.65783 4.11831 1.57001C4.45685 1.49275 4.80847 1.49275 5.14701 1.57001L5.44176 1.64515C5.9445 1.81797 6.41656 2.06962 6.8403 2.39066H6.86919C7.36718 2.78637 7.79504 3.26307 8.13483 3.80078C8.47693 4.32789 8.71254 4.91688 8.82833 5.53452C8.92372 5.93735 8.92372 6.35688 8.82833 6.7597C8.72344 7.06916 8.5408 7.34647 8.29793 7.56506C8.05506 7.78364 7.76008 7.93618 7.44132 8.008C7.06183 8.10246 6.66498 8.10246 6.28549 8.008C5.7084 7.8679 5.17209 7.59478 4.71936 7.21047C4.13656 6.73013 3.67356 6.12072 3.36702 5.43048C3.24048 5.15393 3.14175 4.86549 3.07228 4.5694C2.92607 4.09269 2.86927 3.59308 2.9047 3.09572V3.11306ZM3.30346 23.7215C3.13879 23.6634 2.99568 23.5566 2.89313 23.4152V23.4441L2.80646 23.2939C2.7794 23.2444 2.75808 23.1921 2.7429 23.1378C2.70441 23.0233 2.6773 22.9052 2.66198 22.7853C2.66198 22.6292 2.6273 22.4674 2.61574 22.3056C2.61574 21.982 2.57531 21.6641 2.56375 21.3463C2.55219 21.0284 2.56375 20.699 2.56375 20.3812C2.56375 20.0633 2.56375 19.7281 2.56375 19.3987V19.0231C2.63143 19.0746 2.7029 19.121 2.77757 19.1618C2.84692 19.2022 2.91627 19.2427 2.9914 19.2773C3.03185 20.0864 3.06075 20.8955 3.09542 21.6988C3.09917 22.1468 3.12618 22.5943 3.17634 23.0396C3.17634 23.1783 3.22254 23.317 3.25143 23.4499C3.28033 23.5828 3.28033 23.6059 3.29189 23.6868C3.30345 23.7677 3.29189 23.7157 3.29189 23.7273L3.30346 23.7215ZM3.6502 18.5838C3.11751 18.3591 2.65177 18.0008 2.29789 17.5436C1.92847 17.083 1.63575 16.5659 1.43102 16.0121C0.9816 14.8038 0.913012 13.4868 1.23451 12.2383C1.23451 12.1574 1.28075 12.0707 1.30965 11.9898C1.30965 11.9898 1.43679 12.1459 1.45413 12.169L1.61017 12.3481L1.9338 12.7064C2.14763 12.9318 2.37301 13.1572 2.57528 13.3999C2.77755 13.6427 2.96249 13.8681 3.1532 14.1108C3.34391 14.3535 3.49995 14.5904 3.69644 14.8216C3.8554 15.0258 4.05415 15.1956 4.28063 15.3208C4.50712 15.4459 4.75664 15.5238 5.0141 15.5498C5.22337 15.559 5.43221 15.5236 5.62669 15.4458C5.88098 15.3417 6.10636 15.1915 6.34909 15.0759C6.47179 15.0168 6.5994 14.9684 6.7305 14.9314C6.85794 14.8883 6.99603 14.8883 7.12347 14.9314C7.14316 14.9416 7.16081 14.9553 7.1755 14.9719C7.24964 15.0352 7.30217 15.12 7.32577 15.2146C7.35892 15.3126 7.38404 15.4131 7.4009 15.5151C7.48535 16.0806 7.37312 16.6579 7.08302 17.1506C6.80338 17.6182 6.40449 18.0032 5.92719 18.266C5.6675 18.4105 5.39218 18.5249 5.10655 18.607C4.77681 18.704 4.43125 18.7354 4.08942 18.6994C3.93813 18.6732 3.79062 18.6286 3.6502 18.5665V18.5838ZM16.9365 15.0008V15.0297C16.9222 15.1523 16.887 15.2715 16.8324 15.3822C16.7353 15.5859 16.5806 15.7566 16.3875 15.8734C16.1341 16.0252 15.8594 16.1382 15.5726 16.2086C15.2663 16.2953 14.9542 16.3647 14.6479 16.4571H14.6017C14.1208 16.5886 13.671 16.8146 13.2783 17.1217C12.9124 17.4374 12.6237 17.8328 12.4345 18.2775C12.0363 19.3111 11.9186 20.4317 12.0936 21.5254C12.1629 22.1496 12.2611 22.7737 12.2958 23.4094C12.3189 23.7249 12.3189 24.0417 12.2958 24.3572C12.2691 24.643 12.1949 24.9223 12.0762 25.1836C11.9562 25.4373 11.752 25.6415 11.4983 25.7616C11.3983 25.8074 11.2937 25.8423 11.1862 25.8656C10.8778 25.9241 10.5635 25.9454 10.25 25.9291L9.27912 25.8945C8.96127 25.8945 8.64341 25.854 8.33133 25.8136C8.01604 25.7803 7.70328 25.7262 7.39511 25.6518C7.08882 25.5824 6.78252 25.4957 6.48778 25.3975C6.1923 25.2989 5.90284 25.1831 5.62091 25.0507C5.45227 24.9693 5.28825 24.8787 5.12966 24.7791C4.93532 24.6549 4.75847 24.5052 4.60377 24.3341C4.36003 24.0199 4.20981 23.6433 4.17033 23.2476C4.1144 22.7988 4.08162 22.3475 4.0721 21.8953C4.03164 21.1498 3.97962 20.4043 3.9854 19.653V19.549C4.38543 19.5963 4.79072 19.5708 5.18169 19.4738C5.9387 19.2899 6.63542 18.9137 7.20439 18.3816C7.77293 17.8428 8.14858 17.1321 8.27352 16.3589C8.3891 15.544 8.27354 14.4113 7.39511 14.0472C6.70739 13.7756 6.01967 14.1917 5.43597 14.5095C5.30995 14.583 5.16565 14.6191 5.01989 14.6136C4.87375 14.5877 4.73476 14.531 4.6122 14.4473C4.48964 14.3636 4.38629 14.2548 4.30903 14.1281C4.07208 13.8392 3.85826 13.5502 3.62709 13.2381C3.1532 12.6313 2.58684 12.1112 2.10139 11.5044C1.82448 11.1754 1.57879 10.8213 1.36746 10.4468C1.29811 10.3197 1.23453 10.1983 1.17674 10.0711L1.13628 9.99024V9.95557L1.04958 9.73596C1.00912 9.6146 0.974453 9.48745 0.945557 9.36609C0.916661 9.24472 0.916657 9.22739 0.905099 9.15226C0.89354 9.07713 0.905099 9.07135 0.905099 9.02512C0.878219 8.73067 0.919766 8.43399 1.02647 8.15825C1.1342 7.91635 1.29405 7.70125 1.49458 7.52832C1.70763 7.34534 1.95815 7.21121 2.22855 7.13534C2.50582 7.05279 2.79799 7.03305 3.08385 7.07755C3.26652 7.10263 3.43966 7.17428 3.58663 7.28561C3.69644 7.37807 3.79468 7.49364 3.90448 7.59767C4.01428 7.70169 4.12989 7.79416 4.25125 7.88663C4.47456 8.06245 4.71234 8.21905 4.96208 8.35474C5.2281 8.50165 5.50902 8.61983 5.80006 8.70727C5.94938 8.7535 6.10199 8.78827 6.2566 8.81129C6.68918 8.89232 7.13388 8.88281 7.56259 8.78334C7.9913 8.68387 8.39471 8.4966 8.74741 8.23338C9.08329 7.98354 9.35149 7.65378 9.52762 7.27404C9.72588 6.81355 9.80917 6.31176 9.77034 5.81191C9.64007 4.40006 9.00136 3.0836 7.97303 2.10747L8.2562 1.85319C8.38334 1.7376 8.52205 1.62781 8.66075 1.52379C8.90759 1.35178 9.17085 1.20465 9.4467 1.08457C9.81515 0.921633 10.2172 0.849206 10.6194 0.873334C11.0215 0.897463 11.412 1.01744 11.7584 1.22326C12.1184 1.45065 12.4386 1.73572 12.7062 2.06703C12.9654 2.38682 13.1514 2.75947 13.2512 3.15882C13.3511 3.55818 13.3623 3.97455 13.2841 4.37869C13.2841 4.4596 13.2552 4.5405 13.2378 4.62719C13.1637 4.91892 13.0631 5.20328 12.9373 5.47673C12.8003 5.74909 12.6357 6.00664 12.4461 6.24535C12.3767 6.33781 12.3074 6.43029 12.2438 6.52854C11.9894 6.904 11.8252 7.33319 11.7642 7.7826C11.7218 7.98777 11.7082 8.19784 11.7237 8.40676C11.7468 8.68368 11.7468 8.96203 11.7237 9.23895V9.27364C11.7237 9.27364 11.7237 9.27362 11.7237 9.23895C11.6847 9.52905 11.5967 9.81044 11.4636 10.0711L11.3076 10.3543C11.2142 10.5122 11.112 10.6646 11.0013 10.8109C10.9839 10.8373 10.9646 10.8624 10.9435 10.886L10.8915 10.9554L10.7066 11.1807C10.4696 11.4581 10.2153 11.724 9.96684 11.9898C9.33141 12.564 8.93527 13.3562 8.85722 14.209C8.851 14.4293 8.88984 14.6485 8.97133 14.8532C9.05282 15.0579 9.17523 15.2438 9.33111 15.3995C9.49774 15.5347 9.69064 15.6338 9.89757 15.6905C10.1045 15.7472 10.3209 15.7603 10.5332 15.7289C11.2991 15.6644 12.0422 15.4357 12.7119 15.0586C12.8044 15.0065 12.8969 14.9545 12.9835 14.8967L13.2436 14.7176C13.3245 14.6598 13.4112 14.5962 13.4921 14.5269C13.573 14.4575 13.6481 14.394 13.729 14.3188L13.9487 14.0992C14.0238 14.0241 14.0931 13.949 14.1625 13.8681C14.2318 13.7871 14.2954 13.712 14.359 13.6253C14.4226 13.5387 14.4803 13.4577 14.5381 13.3711C14.5959 13.2844 14.6537 13.1977 14.7057 13.111L14.8618 12.8336C14.908 12.7411 14.9542 12.6487 14.9947 12.5504C15.0351 12.4522 15.0756 12.3597 15.1161 12.2614L15.2201 11.9667C15.2201 11.9378 15.2201 11.9089 15.2201 11.88V11.7933C15.2727 11.8326 15.3229 11.875 15.3703 11.9205L15.5032 12.0592L15.5379 12.0938C15.6362 12.2037 15.7344 12.3192 15.8269 12.4406C16.0122 12.6892 16.1839 12.9477 16.3412 13.215C16.501 13.4738 16.6327 13.7489 16.7342 14.0357C16.8714 14.3285 16.9405 14.6485 16.9365 14.9719V15.0008Z" fill="#2C255E"/>
</g>
<defs>
<clipPath id="clip0_1_524">
<rect width="105.464" height="28" fill="white"/>
</clipPath>
</defs>
</svg>
