<svg xmlns="http://www.w3.org/2000/svg" width="25" height="24" viewBox="0 0 25 24" fill="none">
  <path d="M12.4991 21.6376C12.1951 21.6376 11.901 21.5984 11.6559 21.5102C7.91082 20.2259 1.95984 15.667 1.95984 8.93175C1.95984 5.50038 4.73435 2.71606 8.14611 2.71606C9.80298 2.71606 11.352 3.36312 12.4991 4.51999C13.6461 3.36312 15.1951 2.71606 16.852 2.71606C20.2638 2.71606 23.0383 5.51018 23.0383 8.93175C23.0383 15.6768 17.0873 20.2259 13.3422 21.5102C13.0971 21.5984 12.803 21.6376 12.4991 21.6376ZM8.14611 4.18665C5.54807 4.18665 3.43043 6.3141 3.43043 8.93175C3.43043 15.6278 9.8716 19.3533 12.1363 20.1278C12.3128 20.1867 12.6951 20.1867 12.8716 20.1278C15.1265 19.3533 21.5775 15.6376 21.5775 8.93175C21.5775 6.3141 19.4598 4.18665 16.8618 4.18665C15.3716 4.18665 13.9892 4.88273 13.0971 6.08861C12.8226 6.46116 12.1951 6.46116 11.9206 6.08861C11.0089 4.87293 9.63631 4.18665 8.14611 4.18665Z" fill="#EA5A1A"/>
</svg>