<svg xmlns="http://www.w3.org/2000/svg" width="180" height="36" viewBox="0 0 180 36" fill="none">
  <path d="M17.0489 2.92705C17.3483 2.00574 18.6517 2.00574 18.9511 2.92705L21.8167 11.7467C21.9506 12.1587 22.3346 12.4377 22.7678 12.4377H32.0413C33.0101 12.4377 33.4128 13.6773 32.6291 14.2467L25.1267 19.6976C24.7762 19.9522 24.6295 20.4036 24.7634 20.8156L27.6291 29.6353C27.9284 30.5566 26.874 31.3227 26.0902 30.7533L18.5878 25.3024C18.2373 25.0478 17.7627 25.0478 17.4122 25.3024L9.90976 30.7533C9.12605 31.3227 8.07157 30.5566 8.37092 29.6353L11.2366 20.8156C11.3705 20.4036 11.2238 19.9522 10.8733 19.6976L3.37088 14.2467C2.58717 13.6773 2.98994 12.4377 3.95867 12.4377H13.2322C13.6654 12.4377 14.0494 12.1587 14.1833 11.7467L17.0489 2.92705Z" fill="#FCC300"/>
  <path d="M89.0489 2.92705C89.3483 2.00574 90.6517 2.00574 90.9511 2.92705L93.8167 11.7467C93.9506 12.1587 94.3346 12.4377 94.7678 12.4377H104.041C105.01 12.4377 105.413 13.6773 104.629 14.2467L97.1267 19.6976C96.7762 19.9522 96.6295 20.4036 96.7634 20.8156L99.6291 29.6353C99.9284 30.5566 98.874 31.3227 98.0902 30.7533L90.5878 25.3024C90.2373 25.0478 89.7627 25.0478 89.4122 25.3024L81.9098 30.7533C81.1261 31.3227 80.0716 30.5566 80.3709 29.6353L83.2366 20.8156C83.3705 20.4036 83.2238 19.9522 82.8733 19.6976L75.3709 14.2467C74.5872 13.6773 74.9899 12.4377 75.9587 12.4377H85.2322C85.6654 12.4377 86.0494 12.1587 86.1833 11.7467L89.0489 2.92705Z" fill="#FCC300"/>
  <path d="M53.0489 2.92705C53.3483 2.00574 54.6517 2.00574 54.9511 2.92705L57.8167 11.7467C57.9506 12.1587 58.3346 12.4377 58.7678 12.4377H68.0413C69.0101 12.4377 69.4128 13.6773 68.6291 14.2467L61.1267 19.6976C60.7762 19.9522 60.6295 20.4036 60.7634 20.8156L63.6291 29.6353C63.9284 30.5566 62.874 31.3227 62.0902 30.7533L54.5878 25.3024C54.2373 25.0478 53.7627 25.0478 53.4122 25.3024L45.9098 30.7533C45.1261 31.3227 44.0716 30.5566 44.3709 29.6353L47.2366 20.8156C47.3705 20.4036 47.2238 19.9522 46.8733 19.6976L39.3709 14.2467C38.5872 13.6773 38.9899 12.4377 39.9587 12.4377H49.2322C49.6654 12.4377 50.0494 12.1587 50.1833 11.7467L53.0489 2.92705Z" fill="#FCC300"/>
  <path d="M125.049 2.92705C125.348 2.00574 126.652 2.00574 126.951 2.92705L129.817 11.7467C129.951 12.1587 130.335 12.4377 130.768 12.4377H140.041C141.01 12.4377 141.413 13.6773 140.629 14.2467L133.127 19.6976C132.776 19.9522 132.63 20.4036 132.763 20.8156L135.629 29.6353C135.928 30.5566 134.874 31.3227 134.09 30.7533L126.588 25.3024C126.237 25.0478 125.763 25.0478 125.412 25.3024L117.91 30.7533C117.126 31.3227 116.072 30.5566 116.371 29.6353L119.237 20.8156C119.37 20.4036 119.224 19.9522 118.873 19.6976L111.371 14.2467C110.587 13.6773 110.99 12.4377 111.959 12.4377H121.232C121.665 12.4377 122.049 12.1587 122.183 11.7467L125.049 2.92705Z" fill="#FCC300"/>
  <path d="M161.049 2.92705C161.348 2.00574 162.652 2.00574 162.951 2.92705L165.817 11.7467C165.951 12.1587 166.335 12.4377 166.768 12.4377H176.041C177.01 12.4377 177.413 13.6773 176.629 14.2467L169.127 19.6976C168.776 19.9522 168.63 20.4036 168.763 20.8156L171.629 29.6353C171.928 30.5566 170.874 31.3227 170.09 30.7533L162.588 25.3024C162.237 25.0478 161.763 25.0478 161.412 25.3024L153.91 30.7533C153.126 31.3227 152.072 30.5566 152.371 29.6353L155.237 20.8156C155.37 20.4036 155.224 19.9522 154.873 19.6976L147.371 14.2467C146.587 13.6773 146.99 12.4377 147.959 12.4377H157.232C157.665 12.4377 158.049 12.1587 158.183 11.7467L161.049 2.92705Z" fill="#DBE1E5"/>
</svg>