<svg xmlns="http://www.w3.org/2000/svg" width="18" height="18" viewBox="0 0 18 18" fill="none">
  <path d="M9.54799 9.15714C9.52656 9.15714 9.51228 9.15714 9.49085 9.15714C9.45513 9.15 9.40513 9.15 9.36228 9.15714C7.29085 9.09286 5.72656 7.46429 5.72656 5.45714C5.72656 3.41429 7.39085 1.75 9.43371 1.75C11.4766 1.75 13.1408 3.41429 13.1408 5.45714C13.1337 7.46429 11.5623 9.09286 9.56942 9.15714C9.56228 9.15714 9.55513 9.15714 9.54799 9.15714ZM9.43371 2.82143C7.98371 2.82143 6.79799 4.00714 6.79799 5.45714C6.79799 6.88571 7.91228 8.03571 9.3337 8.08571C9.36942 8.07857 9.46942 8.07857 9.56228 8.08571C10.9623 8.02143 12.0623 6.87143 12.0694 5.45714C12.0694 4.00714 10.8837 2.82143 9.43371 2.82143Z" fill="#252525"/>
  <path d="M9.55558 16.9639C8.15558 16.9639 6.74844 16.6068 5.68415 15.8925C4.69129 15.2354 4.14844 14.3354 4.14844 13.3568C4.14844 12.3782 4.69129 11.4711 5.68415 10.8068C7.82701 9.38537 11.2984 9.38537 13.427 10.8068C14.4127 11.4639 14.9627 12.3639 14.9627 13.3425C14.9627 14.3211 14.4199 15.2282 13.427 15.8925C12.3556 16.6068 10.9556 16.9639 9.55558 16.9639ZM6.27701 11.7068C5.59129 12.1639 5.21987 12.7497 5.21987 13.3639C5.21987 13.9711 5.59844 14.5568 6.27701 15.0068C8.05558 16.1997 11.0556 16.1997 12.8342 15.0068C13.5199 14.5497 13.8913 13.9639 13.8913 13.3497C13.8913 12.7425 13.5127 12.1568 12.8342 11.7068C11.0556 10.5211 8.05558 10.5211 6.27701 11.7068Z" fill="#252525"/>
</svg>